Lugrasimo-Regular.ufo
<glyph name="parenright" format="2">
  <advance width="722"/>
  <unicode hex="0029"/>
  <outline>
    <contour>
      <point x="-223.139" y="-336" type="curve"/>
      <point x="-134.661" y="-296.774"/>
      <point x="-66.5941" y="-225.813"/>
      <point x="22.6337" y="-187" type="curve" smooth="yes"/>
      <point x="45.5467" y="-177.033"/>
      <point x="70.1971" y="-170.649"/>
      <point x="93.6292" y="-162" type="curve" smooth="yes"/>
      <point x="536.543" y="1.4797"/>
      <point x="761.398" y="410.498"/>
      <point x="761.398" y="870.041" type="curve" smooth="yes"/>
      <point x="761.398" y="1226.06"/>
      <point x="611.394" y="1695.17"/>
      <point x="193.288" y="1728" type="curve"/>
      <point x="251.822" y="1756.07"/>
      <point x="390.409" y="1877"/>
      <point x="440.062" y="1877" type="curve" smooth="yes"/>
      <point x="481.896" y="1877"/>
      <point x="523.823" y="1864.42"/>
      <point x="562.667" y="1850" type="curve" smooth="yes"/>
      <point x="882.752" y="1731.16"/>
      <point x="1013.19" y="1365.53"/>
      <point x="1013.19" y="1049.61" type="curve" smooth="yes"/>
      <point x="1013.19" y="374.697"/>
      <point x="418.231" y="-214.189"/>
    </contour>
  </outline>
</glyph>
<glyph name="comma" format="2">
  <advance width="580"/>
  <unicode hex="002C"/>
  <outline>
    <contour>
      <point x="181.256" y="-309" type="curve"/>
      <point x="248.702" y="-251.07"/>
      <point x="342.47" y="-147.102"/>
      <point x="342.47" y="-53.0238" type="curve" smooth="yes"/>
      <point x="342.47" y="-30.0783"/>
      <point x="335.939" y="-2"/>
      <point x="307.6" y="-2" type="curve" smooth="yes"/>
      <point x="286.889" y="-2"/>
      <point x="254.539" y="-23.8225"/>
      <point x="236.206" y="-34" type="curve"/>
      <point x="160.173" y="151" type="line"/>
      <point x="401.946" y="300" type="line"/>
      <point x="435.183" y="228.931"/>
      <point x="474.483" y="157.22"/>
      <point x="474.483" y="76.5603" type="curve" smooth="yes"/>
      <point x="474.483" y="-63.0136"/>
      <point x="357.115" y="-207.191"/>
      <point x="240.449" y="-273" type="curve" smooth="yes"/>
      <point x="220.297" y="-284.368"/>
      <point x="200.254" y="-295.742"/>
    </contour>
  </outline>
</glyph>
<glyph name="hyphen" format="2">
  <advance width="642"/>
  <unicode hex="002D"/>
  <outline>
    <contour>
      <point x="977.278" y="677" type="line"/>
      <point x="909.513" y="661.043"/>
      <point x="795.27" y="528"/>
      <point x="733.505" y="528" type="curve" smooth="yes"/>
      <point x="-63.4952" y="528" type="line"/>
      <point x="6.5175" y="544.258"/>
      <point x="116.685" y="677"/>
      <point x="183.278" y="677" type="curve" smooth="yes"/>
    </contour>
  </outline>
</glyph>
<glyph name="period" format="2">
  <advance width="580"/>
  <unicode hex="002E"/>
  <outline>
    <contour>
      <point x="488.379" y="117" type="line"/>
      <point x="241.206" y="-34" type="line"/>
      <point x="165.173" y="151" type="line"/>
      <point x="406.946" y="300" type="line"/>
    </contour>
  </outline>
</glyph>
<glyph name="zero" format="2">
  <advance width="1360"/>
  <unicode hex="0030"/>
  <outline>
    <contour>
      <point x="581.175" y="-29" type="curve" smooth="yes"/>
      <point x="334.483" y="-29"/>
      <point x="226.593" y="167.409"/>
      <point x="226.593" y="391.135" type="curve" smooth="yes"/>
      <point x="226.593" y="684.615"/>
      <point x="392.264" y="929.658"/>
      <point x="627.551" y="1091.98" type="curve" smooth="yes"/>
      <point x="724.165" y="1158.64"/>
      <point x="835.965" y="1220.77"/>
      <point x="956.61" y="1220.77" type="curve" smooth="yes"/>
      <point x="1206.7" y="1220.77"/>
      <point x="1370.94" y="1009.72"/>
      <point x="1370.94" y="770.859" type="curve" smooth="yes"/>
      <point x="1370.94" y="486.63"/>
      <point x="1151.84" y="243.356"/>
      <point x="924.96" y="99.7874" type="curve" smooth="yes"/>
      <point x="824.727" y="36.3597"/>
      <point x="702.709" y="-29"/>
    </contour>
    <contour>
      <point x="787.75" y="1069.77" type="curve" smooth="yes"/>
      <point x="572.612" y="1069.77"/>
      <point x="512.481" y="829.911"/>
      <point x="479.936" y="660.094" type="curve" smooth="yes"/>
      <point x="470.422" y="610.453"/>
      <point x="464.773" y="560.276"/>
      <point x="464.773" y="509.686" type="curve" smooth="yes"/>
      <point x="464.773" y="315.409"/>
      <point x="546.35" y="120"/>
      <point x="769.396" y="120" type="curve" smooth="yes"/>
      <point x="990.964" y="120"/>
      <point x="1130.45" y="476.303"/>
      <point x="1130.45" y="661.274" type="curve" smooth="yes"/>
      <point x="1130.45" y="860.248"/>
      <point x="1006.58" y="1069.77"/>
    </contour>
  </outline>
</glyph>
<glyph name="one" format="2">
  <advance width="888"/>
  <unicode hex="0031"/>
  <outline>
    <contour>
      <point x="886.773" y="149" type="line"/>
      <point x="847.868" y="124.22"/>
      <point x="672.072" y="0"/>
      <point x="642" y="0" type="curve" smooth="yes"/>
      <point x="216" y="0" type="line"/>
      <point x="226.077" y="19.0414"/>
      <point x="243.857" y="32.3193"/>
      <point x="259.975" y="45.9103" type="curve" smooth="yes"/>
      <point x="323.074" y="99.1177"/>
      <point x="352.88" y="148.035"/>
      <point x="370.034" y="230.376" type="curve" smooth="yes"/>
      <point x="541.407" y="1053" type="line"/>
      <point x="288.83" y="920" type="line"/>
      <point x="294.024" y="956" type="line"/>
      <point x="788.777" y="1220" type="line"/>
      <point x="621.511" y="412.929" type="line" smooth="yes"/>
      <point x="603.077" y="323.984"/>
      <point x="554.238" y="205.711"/>
      <point x="480.773" y="149" type="curve"/>
    </contour>
  </outline>
</glyph>
<glyph name="two" format="2">
  <advance width="1164"/>
  <unicode hex="0032"/>
  <outline>
    <contour>
      <point x="1131.77" y="149" type="line"/>
      <point x="1056.8" y="123.967"/>
      <point x="946.934" y="0"/>
      <point x="886" y="0" type="curve" smooth="yes"/>
      <point x="58" y="0" type="line"/>
      <point x="135.373" y="138.509"/>
      <point x="264.705" y="244.393"/>
      <point x="393.915" y="332.53" type="curve" smooth="yes"/>
      <point x="475.908" y="388.459"/>
      <point x="561.477" y="438.857"/>
      <point x="647.02" y="489.091" type="curve" smooth="yes"/>
      <point x="771.73" y="562.325"/>
      <point x="1024.75" y="690.87"/>
      <point x="1062.98" y="840.644" type="curve" smooth="yes"/>
      <point x="1065.03" y="848.695"/>
      <point x="1065.52" y="857.676"/>
      <point x="1065.52" y="865.951" type="curve" smooth="yes"/>
      <point x="1065.52" y="999.373"/>
      <point x="868.461" y="1072.5"/>
      <point x="758.43" y="1072.5" type="curve" smooth="yes"/>
      <point x="628.146" y="1072.5"/>
      <point x="561.968" y="976.559"/>
      <point x="538.845" y="858.496" type="curve"/>
      <point x="295.475" y="691.496" type="line"/>
      <point x="331.633" y="871.788"/>
      <point x="478.168" y="977.102"/>
      <point x="620.368" y="1074.5" type="curve" smooth="yes"/>
      <point x="715.889" y="1139.92"/>
      <point x="827.12" y="1219.5"/>
      <point x="947.733" y="1219.5" type="curve" smooth="yes"/>
      <point x="1065.28" y="1219.5"/>
      <point x="1311.47" y="1164.9"/>
      <point x="1311.47" y="1011.45" type="curve" smooth="yes"/>
      <point x="1311.47" y="1004.14"/>
      <point x="1311.14" y="996.402"/>
      <point x="1309.67" y="989.219" type="curve" smooth="yes"/>
      <point x="1300.18" y="942.908"/>
      <point x="1288.72" y="902.245"/>
      <point x="1266.93" y="859.967" type="curve" smooth="yes"/>
      <point x="1077.48" y="492.388"/>
      <point x="375.191" y="390.159"/>
      <point x="306.773" y="149" type="curve"/>
    </contour>
  </outline>
</glyph>
<glyph name="seven" format="2">
  <advance width="1137"/>
  <unicode hex="0037"/>
  <outline>
    <contour>
      <point x="1322.78" y="1200" type="line"/>
      <point x="940.315" y="472" type="line" smooth="yes"/>
      <point x="890.623" y="377.415"/>
      <point x="840.788" y="282.569"/>
      <point x="780.765" y="194" type="curve" smooth="yes"/>
      <point x="614.698" y="-51.049"/>
      <point x="260.13" y="-368.69"/>
      <point x="-17.7145" y="-474" type="curve"/>
      <point x="-19.3158" y="-467" type="line"/>
      <point x="224.482" y="-324.997"/>
      <point x="377.661" y="-190.557"/>
      <point x="534.992" y="45" type="curve" smooth="yes"/>
      <point x="746.664" y="361.916"/>
      <point x="904.739" y="711.889"/>
      <point x="1080.61" y="1049" type="curve"/>
      <point x="284.611" y="1049" type="line"/>
      <point x="327.089" y="1075.89"/>
      <point x="492.892" y="1200"/>
      <point x="528.784" y="1200" type="curve" smooth="yes"/>
    </contour>
  </outline>
</glyph>
<glyph name="D" format="2">
  <advance width="1991"/>
  <unicode hex="0044"/>
  <anchor x="735" y="0" name="bottom"/>
  <anchor x="1021.27" y="717" name="center"/>
  <anchor x="1307.54" y="1434" name="top"/>
  <outline>
    <contour>
      <point x="295" y="0" type="line"/>
      <point x="390.553" y="82.0177"/>
      <point x="419.928" y="195.87"/>
      <point x="443.743" y="314" type="curve" smooth="yes"/>
      <point x="669.741" y="1435" type="line"/>
      <point x="425.741" y="1435" type="line"/>
      <point x="481.148" y="1463.03"/>
      <point x="627.381" y="1586"/>
      <point x="672.914" y="1586" type="curve" smooth="yes"/>
      <point x="1162.91" y="1586" type="line" smooth="yes"/>
      <point x="1529.71" y="1586"/>
      <point x="2010.02" y="1441.31"/>
      <point x="2010.02" y="996.424" type="curve" smooth="yes"/>
      <point x="2010.02" y="950.689"/>
      <point x="2004.98" y="904.794"/>
      <point x="1995.85" y="860" type="curve" smooth="yes"/>
      <point x="1881.1" y="297.462"/>
      <point x="1197.8" y="0"/>
      <point x="675.312" y="0" type="curve" smooth="yes"/>
    </contour>
    <contour>
      <point x="552.374" y="147" type="curve"/>
      <point x="960.319" y="147" type="line" smooth="yes"/>
      <point x="1336.44" y="147"/>
      <point x="1671.68" y="293.483"/>
      <point x="1752.47" y="693" type="curve" smooth="yes"/>
      <point x="1765.29" y="756.376"/>
      <point x="1773.29" y="821.127"/>
      <point x="1773.29" y="885.854" type="curve" smooth="yes"/>
      <point x="1773.29" y="1382.13"/>
      <point x="1269.43" y="1435.2"/>
      <point x="883.741" y="1435" type="curve"/>
      <point x="669.733" y="374" type="line" smooth="yes"/>
      <point x="649.462" y="273.502"/>
      <point x="625.356" y="220.921"/>
    </contour>
  </outline>
</glyph>
<glyph name="E" format="2">
  <advance width="1506"/>
  <unicode hex="0045"/>
  <anchor x="651" y="0" name="bottom"/>
  <anchor x="1257" y="10" name="ogonek"/>
  <anchor x="1223.54" y="1434" name="top"/>
  <anchor x="490.541" y="1434" name="topleft"/>
  <outline>
    <contour>
      <point x="1811.91" y="1586" type="line"/>
      <point x="1732.48" y="1561.13"/>
      <point x="1594.94" y="1435"/>
      <point x="1528.17" y="1435" type="curve" smooth="yes"/>
      <point x="838.741" y="1435" type="line"/>
      <point x="728.838" y="900" type="line"/>
      <point x="1505.84" y="900" type="line"/>
      <point x="1466.76" y="891.185"/>
      <point x="1412.37" y="854.213"/>
      <point x="1377.98" y="832" type="curve" smooth="yes"/>
      <point x="1338.33" y="806.394"/>
      <point x="1253.7" y="751"/>
      <point x="1207.77" y="751" type="curve" smooth="yes"/>
      <point x="699.065" y="751" type="line"/>
      <point x="627.529" y="393" type="line" smooth="yes"/>
      <point x="613.666" y="323.624"/>
      <point x="573.493" y="180.527"/>
      <point x="504.773" y="149" type="curve"/>
      <point x="1327.07" y="149" type="line" smooth="yes"/>
      <point x="1396.35" y="149"/>
      <point x="1501.8" y="185.1"/>
      <point x="1568.56" y="208" type="curve"/>
      <point x="1504.5" y="155.823"/>
      <point x="1208.93" y="0"/>
      <point x="1133.71" y="0" type="curve" smooth="yes"/>
      <point x="236" y="0" type="line"/>
      <point x="339.247" y="108.376"/>
      <point x="375.093" y="200.791"/>
      <point x="403.938" y="345" type="curve" smooth="yes"/>
      <point x="485.065" y="751" type="line"/>
      <point x="332.065" y="751" type="line"/>
      <point x="511.043" y="871" type="line"/>
      <point x="623.741" y="1435" type="line"/>
      <point x="418.741" y="1435" type="line"/>
      <point x="460.743" y="1463.19"/>
      <point x="646.21" y="1586"/>
      <point x="683.846" y="1586" type="curve" smooth="yes"/>
    </contour>
  </outline>
</glyph>
<glyph name="F" format="2">
  <advance width="1569"/>
  <unicode hex="0046"/>
  <anchor x="620" y="0" name="bottom"/>
  <anchor x="1192.54" y="1434" name="top"/>
  <outline>
    <contour>
      <point x="1850.91" y="1586" type="line"/>
      <point x="1781.75" y="1565"/>
      <point x="1675.7" y="1435"/>
      <point x="1605.74" y="1435" type="curve" smooth="yes"/>
      <point x="834.741" y="1435" type="line"/>
      <point x="715.249" y="837" type="line"/>
      <point x="1477.25" y="837" type="line"/>
      <point x="1444.25" y="826.652"/>
      <point x="1403.31" y="790.775"/>
      <point x="1375.66" y="769" type="curve" smooth="yes"/>
      <point x="1344.36" y="744.352"/>
      <point x="1274.52" y="686"/>
      <point x="1235.08" y="686" type="curve" smooth="yes"/>
      <point x="685.076" y="686" type="line"/>
      <point x="658.485" y="552.91"/>
      <point x="613.656" y="235.99"/>
      <point x="498.773" y="149" type="curve"/>
      <point x="1080.77" y="149" type="line"/>
      <point x="1013.14" y="136.116"/>
      <point x="896.348" y="0"/>
      <point x="837" y="0" type="curve" smooth="yes"/>
      <point x="232" y="0" type="line"/>
      <point x="293.196" y="66.9833"/>
      <point x="365.215" y="174.417"/>
      <point x="383.752" y="264" type="curve" smooth="yes"/>
      <point x="471.076" y="686" type="line"/>
      <point x="315.076" y="686" type="line"/>
      <point x="494.855" y="805" type="line"/>
      <point x="620.741" y="1435" type="line"/>
      <point x="414.741" y="1435" type="line"/>
      <point x="451.417" y="1463.03"/>
      <point x="625.052" y="1586"/>
      <point x="659.914" y="1586" type="curve" smooth="yes"/>
    </contour>
  </outline>
</glyph>
<glyph name="I" format="2">
  <advance width="925"/>
  <unicode hex="0049"/>
  <anchor x="319" y="0" name="bottom"/>
  <anchor x="692.998" y="10" name="ogonek"/>
  <anchor x="891.542" y="1434" name="top"/>
  <anchor x="448.541" y="1434" name="topleft"/>
  <outline>
    <contour>
      <point x="1162.91" y="1586" type="line"/>
      <point x="1096.03" y="1570.81"/>
      <point x="978.609" y="1435"/>
      <point x="917.741" y="1435" type="curve" smooth="yes"/>
      <point x="834.741" y="1435" type="line"/>
      <point x="631.123" y="426" type="line" smooth="yes"/>
      <point x="613.16" y="336.987"/>
      <point x="568.811" y="209.493"/>
      <point x="498.773" y="149" type="curve"/>
      <point x="850.773" y="149" type="line"/>
      <point x="783.878" y="133.251"/>
      <point x="669.948" y="0"/>
      <point x="607" y="0" type="curve" smooth="yes"/>
      <point x="232" y="0" type="line"/>
      <point x="330.177" y="79.239"/>
      <point x="359.248" y="142.919"/>
      <point x="383.752" y="264" type="curve" smooth="yes"/>
      <point x="620.741" y="1435" type="line"/>
      <point x="414.741" y="1435" type="line"/>
      <point x="456.868" y="1462.81"/>
      <point x="622.611" y="1586"/>
      <point x="659.914" y="1586" type="curve" smooth="yes"/>
    </contour>
  </outline>
</glyph>
<glyph name="K" format="2">
  <advance width="2028"/>
  <unicode hex="004B"/>
  <anchor x="863" y="0" name="bottom"/>
  <anchor x="1435.54" y="1434" name="top"/>
  <outline>
    <contour>
      <point x="1991.91" y="1586" type="line"/>
      <point x="1891.1" y="1542.98"/>
      <point x="1820.13" y="1431.9"/>
      <point x="1703.41" y="1431.9" type="curve" smooth="yes"/>
      <point x="1663.21" y="1431.9"/>
      <point x="1622.99" y="1434.74"/>
      <point x="1582.74" y="1435" type="curve"/>
      <point x="1391.21" y="1251.91"/>
      <point x="1188.41" y="1080.81"/>
      <point x="980.235" y="917" type="curve"/>
      <point x="1367.83" y="502.531" type="line" smooth="yes"/>
      <point x="1506.44" y="354.261"/>
      <point x="1683.45" y="147"/>
      <point x="1904.38" y="147" type="curve" smooth="yes"/>
      <point x="1968.96" y="147"/>
      <point x="2064.87" y="177.642"/>
      <point x="2126.76" y="199" type="curve"/>
      <point x="1980.35" y="103.474"/>
      <point x="1752.07" y="-5"/>
      <point x="1575.29" y="-5" type="curve" smooth="yes"/>
      <point x="1444" y="-5"/>
      <point x="1382.28" y="63.0588"/>
      <point x="1297.63" y="149" type="curve" smooth="yes"/>
      <point x="1097.22" y="352.457"/>
      <point x="902.905" y="564.252"/>
      <point x="742.056" y="801" type="curve"/>
      <point x="999.441" y="1007.18"/>
      <point x="1262.06" y="1207.93"/>
      <point x="1501.74" y="1435" type="curve"/>
      <point x="1309.74" y="1435" type="line"/>
      <point x="1347.58" y="1462.57"/>
      <point x="1520.11" y="1586"/>
      <point x="1554.91" y="1586" type="curve" smooth="yes"/>
    </contour>
    <contour>
      <point x="1178.91" y="1586" type="line"/>
      <point x="1105.35" y="1563.53"/>
      <point x="993.317" y="1435"/>
      <point x="931.741" y="1435" type="curve" smooth="yes"/>
      <point x="850.741" y="1435" type="line"/>
      <point x="647.123" y="426" type="line" smooth="yes"/>
      <point x="620.956" y="296.332"/>
      <point x="603.845" y="250.035"/>
      <point x="514.773" y="149" type="curve"/>
      <point x="866.773" y="149" type="line"/>
      <point x="797.511" y="133.049"/>
      <point x="682.478" y="0"/>
      <point x="621" y="0" type="curve" smooth="yes"/>
      <point x="248" y="0" type="line"/>
      <point x="350.037" y="88.6116"/>
      <point x="398.792" y="255.414"/>
      <point x="424.731" y="384" type="curve" smooth="yes"/>
      <point x="636.741" y="1435" type="line"/>
      <point x="428.741" y="1435" type="line"/>
      <point x="468.104" y="1462.13"/>
      <point x="641.408" y="1586"/>
      <point x="675.914" y="1586" type="curve" smooth="yes"/>
    </contour>
  </outline>
</glyph>
<glyph name="Q" format="2">
  <advance width="1520"/>
  <unicode hex="0051"/>
  <anchor x="658" y="0" name="bottom"/>
  <anchor x="1230.54" y="1434" name="top"/>
  <outline>
    <component base="O" xOffset="-60"/>
    <contour>
      <point x="2115.42" y="-113" type="curve"/>
      <point x="1984.16" y="-223.824"/>
      <point x="1780.69" y="-325"/>
      <point x="1606.06" y="-325" type="curve" smooth="yes"/>
      <point x="1350.91" y="-325"/>
      <point x="1107.17" y="-107.5"/>
      <point x="917.945" y="43.3753" type="curve"/>
      <point x="1167.79" y="190.879" type="line"/>
      <point x="1367.43" y="30.1024"/>
      <point x="1583.98" y="-174"/>
      <point x="1857.23" y="-174" type="curve" smooth="yes"/>
      <point x="1934.29" y="-174"/>
      <point x="2042.48" y="-139.342"/>
    </contour>
  </outline>
</glyph>
<glyph name="S" format="2">
  <advance width="1189"/>
  <unicode hex="0053"/>
  <anchor x="441" y="0" name="bottom"/>
  <anchor x="1013.54" y="1434" name="top"/>
  <outline>
    <contour>
      <point x="1373.32" y="1543" type="curve" smooth="yes"/>
      <point x="1373.32" y="1491.34"/>
      <point x="1123.83" y="1351.81"/>
      <point x="1072.56" y="1329" type="curve"/>
      <point x="1093.97" y="1340.56"/>
      <point x="1124.6" y="1369.92"/>
      <point x="1124.6" y="1396.43" type="curve" smooth="yes"/>
      <point x="1124.6" y="1448.78"/>
      <point x="932.267" y="1464"/>
      <point x="892.514" y="1464" type="curve" smooth="yes"/>
      <point x="708.257" y="1464"/>
      <point x="562.226" y="1392.5"/>
      <point x="562.226" y="1186.68" type="curve" smooth="yes"/>
      <point x="562.226" y="833.418"/>
      <point x="1163.12" y="970.704"/>
      <point x="1163.12" y="608.587" type="curve" smooth="yes"/>
      <point x="1163.12" y="251.67"/>
      <point x="676.658" y="-27"/>
      <point x="357.559" y="-27" type="curve" smooth="yes"/>
      <point x="282.18" y="-27"/>
      <point x="58.7449" y="12.0487"/>
      <point x="58.7449" y="111.881" type="curve" smooth="yes"/>
      <point x="58.7449" y="205.087"/>
      <point x="285.607" y="314.596"/>
      <point x="360.337" y="352" type="curve"/>
      <point x="332.856" y="329.236"/>
      <point x="309.49" y="295.754"/>
      <point x="309.49" y="258.853" type="curve" smooth="yes"/>
      <point x="309.49" y="152.877"/>
      <point x="511.626" y="126"/>
      <point x="589.918" y="126" type="curve" smooth="yes"/>
      <point x="782.546" y="126"/>
      <point x="925.79" y="243.68"/>
      <point x="925.79" y="444.289" type="curve" smooth="yes"/>
      <point x="925.79" y="800.187"/>
      <point x="317.546" y="710.216"/>
      <point x="317.546" y="1030.6" type="curve" smooth="yes"/>
      <point x="317.546" y="1050.41"/>
      <point x="319.609" y="1070.63"/>
      <point x="323.803" y="1090" type="curve" smooth="yes"/>
      <point x="380.823" y="1353.31"/>
      <point x="872.649" y="1615"/>
      <point x="1124.93" y="1615" type="curve" smooth="yes"/>
      <point x="1168.48" y="1615"/>
      <point x="1373.32" y="1598.14"/>
    </contour>
  </outline>
</glyph>
<glyph name="U" format="2">
  <advance width="2000"/>
  <unicode hex="0055"/>
  <anchor x="900" y="0" name="bottom"/>
  <anchor x="1704" y="10" name="ogonek"/>
  <anchor x="1472.54" y="1434" name="top"/>
  <anchor x="2452.54" y="1434" name="topright"/>
  <outline>
    <contour>
      <point x="2237.91" y="1586" type="line"/>
      <point x="2165.79" y="1558.59"/>
      <point x="2055.3" y="1437"/>
      <point x="1992.14" y="1437" type="curve" smooth="yes"/>
      <point x="1910.14" y="1437" type="line"/>
      <point x="1706.72" y="429" type="line" smooth="yes"/>
      <point x="1687.15" y="332.023"/>
      <point x="1637.94" y="217.828"/>
      <point x="1563.17" y="151" type="curve"/>
      <point x="1926.17" y="151" type="line"/>
      <point x="1855.84" y="124.24"/>
      <point x="1741.12" y="0"/>
      <point x="1682" y="0" type="curve" smooth="yes"/>
      <point x="1319" y="0" type="line"/>
      <point x="1386.52" y="73.8698"/>
      <point x="1434.41" y="136.483"/>
      <point x="1454.36" y="237" type="curve"/>
      <point x="1241.15" y="103.776"/>
      <point x="996.224" y="-29"/>
      <point x="738.205" y="-29" type="curve" smooth="yes"/>
      <point x="492.649" y="-29"/>
      <point x="337.872" y="62.2087"/>
      <point x="337.872" y="323.539" type="curve" smooth="yes"/>
      <point x="337.872" y="389.882"/>
      <point x="347.129" y="456.058"/>
      <point x="360.106" y="521" type="curve" smooth="yes"/>
      <point x="543.141" y="1437" type="line"/>
      <point x="358.141" y="1437" type="line"/>
      <point x="396.893" y="1464.03"/>
      <point x="568.198" y="1586"/>
      <point x="602.914" y="1586" type="curve" smooth="yes"/>
      <point x="1062.91" y="1586" type="line"/>
      <point x="990.272" y="1558.39"/>
      <point x="880.476" y="1437"/>
      <point x="816.141" y="1437" type="curve" smooth="yes"/>
      <point x="758.141" y="1437" type="line"/>
      <point x="701.305" y="1152.59"/>
      <point x="638.288" y="869.001"/>
      <point x="584.695" y="584" type="curve" smooth="yes"/>
      <point x="577.531" y="545.906"/>
      <point x="572.517" y="507.621"/>
      <point x="572.517" y="468.79" type="curve" smooth="yes"/>
      <point x="572.517" y="218.552"/>
      <point x="763.521" y="122"/>
      <point x="989.378" y="122" type="curve" smooth="yes"/>
      <point x="1135.97" y="122"/>
      <point x="1340.8" y="196.448"/>
      <point x="1462.35" y="277" type="curve"/>
      <point x="1696.14" y="1437" type="line"/>
      <point x="1491.14" y="1437" type="line"/>
      <point x="1526.19" y="1464.21"/>
      <point x="1701.71" y="1586"/>
      <point x="1734.91" y="1586" type="curve" smooth="yes"/>
    </contour>
  </outline>
</glyph>
<glyph name="X" format="2">
  <advance width="1571"/>
  <unicode hex="0058"/>
  <anchor x="684" y="0" name="bottom"/>
  <anchor x="1256.54" y="1434" name="top"/>
  <outline>
    <contour>
      <point x="665.752" y="1606" type="curve" smooth="yes"/>
      <point x="560.97" y="1606"/>
      <point x="389.379" y="1478.72"/>
      <point x="312.746" y="1410" type="curve"/>
      <point x="347.878" y="1431.29"/>
      <point x="392.763" y="1453"/>
      <point x="434.677" y="1453" type="curve" smooth="yes"/>
      <point x="519.887" y="1453"/>
      <point x="553.864" y="1339.37"/>
      <point x="578.176" y="1275.12" type="curve" smooth="yes"/>
      <point x="783.117" y="733.465" type="line" smooth="yes"/>
      <point x="867.11" y="510.966"/>
      <point x="936.492" y="299.028"/>
      <point x="1054.65" y="90" type="curve" smooth="yes"/>
      <point x="1089.63" y="28.1097"/>
      <point x="1121.86" y="-23"/>
      <point x="1201.11" y="-23" type="curve" smooth="yes"/>
      <point x="1318.95" y="-23"/>
      <point x="1490.33" y="100.011"/>
      <point x="1574.57" y="178" type="curve"/>
      <point x="1540.46" y="161.642"/>
      <point x="1464.08" y="124"/>
      <point x="1428.25" y="124" type="curve" smooth="yes"/>
      <point x="1401.37" y="124"/>
      <point x="1376.45" y="137.024"/>
      <point x="1354.43" y="151" type="curve" smooth="yes"/>
      <point x="1287.77" y="193.292"/>
      <point x="1069.13" y="804.694"/>
      <point x="1017.21" y="922.935" type="curve" smooth="yes"/>
      <point x="937.072" y="1105.45"/>
      <point x="862.863" y="1290.83"/>
      <point x="786.496" y="1474.99" type="curve" smooth="yes"/>
      <point x="763.4" y="1530.68"/>
      <point x="738.933" y="1606"/>
    </contour>
    <contour>
      <point x="-23" y="0" type="curve"/>
      <point x="383" y="0" type="line" smooth="yes"/>
      <point x="425.605" y="0"/>
      <point x="572.968" y="124.467"/>
      <point x="627.173" y="151" type="curve"/>
      <point x="230.173" y="151" type="line"/>
      <point x="474.236" y="395.428"/>
      <point x="718.519" y="639.64"/>
      <point x="962.364" y="884.285" type="curve" smooth="yes"/>
      <point x="1023.43" y="945.551"/>
      <point x="1081.54" y="1010.56"/>
      <point x="1141.17" y="1073.3" type="curve" smooth="yes"/>
      <point x="1257.83" y="1196.05"/>
      <point x="1375.47" y="1317.89"/>
      <point x="1495.86" y="1437" type="curve"/>
      <point x="1630.87" y="1437" type="line" smooth="yes"/>
      <point x="1682.95" y="1437"/>
      <point x="1805.63" y="1559.45"/>
      <point x="1869.91" y="1586" type="curve"/>
      <point x="1366.91" y="1586" type="line" smooth="yes"/>
      <point x="1306.21" y="1586"/>
      <point x="1191.02" y="1465.32"/>
      <point x="1122.14" y="1437" type="curve"/>
      <point x="1391.14" y="1437" type="line"/>
      <point x="1263.52" y="1321.01"/>
      <point x="1147.07" y="1193.71"/>
      <point x="1033.32" y="1064.28" type="curve" smooth="yes"/>
      <point x="993.993" y="1019.54"/>
      <point x="954.972" y="974.529"/>
      <point x="916.022" y="929.458" type="curve" smooth="yes"/>
      <point x="898.836" y="909.572"/>
      <point x="883.23" y="888.21"/>
      <point x="864.506" y="869.765" type="curve" smooth="yes"/>
      <point x="569.439" y="579.082"/>
      <point x="272.827" y="289.913"/>
    </contour>
  </outline>
</glyph>
<glyph name="bracketleft" format="2">
  <advance width="722"/>
  <unicode hex="005B"/>
  <outline>
    <contour>
      <point x="1161.06" y="1872" type="line"/>
      <point x="1091.87" y="1855.29"/>
      <point x="981.328" y="1724"/>
      <point x="919.489" y="1724" type="curve" smooth="yes"/>
      <point x="738.489" y="1724" type="line"/>
      <point x="388.803" y="-16" type="line" smooth="yes"/>
      <point x="374.727" y="-86.0398"/>
      <point x="326.162" y="-152.159"/>
      <point x="269.235" y="-194" type="curve"/>
      <point x="725.235" y="-194" type="line"/>
      <point x="686.731" y="-220.477"/>
      <point x="512.802" y="-343"/>
      <point x="479.462" y="-343" type="curve" smooth="yes"/>
      <point x="18.4618" y="-343" type="line"/>
      <point x="109.825" y="-268.388"/>
      <point x="142.498" y="-161.091"/>
      <point x="165.009" y="-50" type="curve" smooth="yes"/>
      <point x="524.489" y="1724" type="line" smooth="yes"/>
      <point x="530.006" y="1751.23"/>
      <point x="734.082" y="1872"/>
      <point x="766.063" y="1872" type="curve" smooth="yes"/>
    </contour>
  </outline>
</glyph>
<glyph name="bracketright" format="2">
  <advance width="722"/>
  <unicode hex="005D"/>
  <outline>
    <contour>
      <point x="1039.06" y="1872" type="line"/>
      <point x="959.031" y="1786.32"/>
      <point x="915.288" y="1702.98"/>
      <point x="892.314" y="1588" type="curve" smooth="yes"/>
      <point x="536.235" y="-194" type="line" smooth="yes"/>
      <point x="530.835" y="-221.024"/>
      <point x="321.647" y="-343"/>
      <point x="289.462" y="-343" type="curve" smooth="yes"/>
      <point x="-105.538" y="-343" type="line"/>
      <point x="-35.2059" y="-326.672"/>
      <point x="72.5588" y="-194"/>
      <point x="141.235" y="-194" type="curve" smooth="yes"/>
      <point x="319.235" y="-194" type="line"/>
      <point x="671.721" y="1545" type="line" smooth="yes"/>
      <point x="683.119" y="1601.23"/>
      <point x="745.543" y="1680.63"/>
      <point x="783.489" y="1724" type="curve"/>
      <point x="334.489" y="1724" type="line"/>
      <point x="371.704" y="1750.86"/>
      <point x="542.424" y="1872"/>
      <point x="576.063" y="1872" type="curve" smooth="yes"/>
    </contour>
  </outline>
</glyph>
<glyph name="grave" format="2">
  <advance width="1197"/>
  <unicode hex="0060"/>
  <anchor x="1150.78" y="1200" name="_top"/>
  <outline>
    <contour>
      <point x="1392.12" y="1532" type="curve"/>
      <point x="1340.95" y="1497.95"/>
      <point x="1197.74" y="1392.54"/>
      <point x="1147.95" y="1381" type="curve"/>
      <point x="1024.4" y="1464.13"/>
      <point x="943.749" y="1594.29"/>
      <point x="888.688" y="1730" type="curve"/>
      <point x="908.933" y="1753.05"/>
      <point x="1109.88" y="1879"/>
      <point x="1132.46" y="1879" type="curve" smooth="yes"/>
      <point x="1139.56" y="1879"/>
      <point x="1139.21" y="1867.91"/>
      <point x="1138.26" y="1863" type="curve"/>
      <point x="1184.49" y="1735.59"/>
      <point x="1274.58" y="1603.02"/>
    </contour>
  </outline>
</glyph>
<glyph name="g" format="2">
  <advance width="1258"/>
  <unicode hex="0067"/>
  <anchor x="260.92" y="-666" name="bottom"/>
  <anchor x="935.615" y="1024" name="top"/>
  <outline>
    <contour>
      <point x="1425.6" y="1094" type="curve"/>
      <point x="1402.19" y="1030.14"/>
      <point x="1252.88" y="960.231"/>
      <point x="1189.43" y="943" type="curve"/>
      <point x="1201.33" y="910.675"/>
      <point x="1206.15" y="876.203"/>
      <point x="1206.15" y="841.863" type="curve" smooth="yes"/>
      <point x="1206.15" y="407.943"/>
      <point x="574.078" y="302.477"/>
      <point x="574.078" y="149.188" type="curve" smooth="yes"/>
      <point x="574.078" y="-3.4993"/>
      <point x="1132.95" y="-52.2287"/>
      <point x="1132.95" y="-276.574" type="curve" smooth="yes"/>
      <point x="1132.95" y="-514.76"/>
      <point x="519.059" y="-670"/>
      <point x="330.121" y="-670" type="curve" smooth="yes"/>
      <point x="227.246" y="-670"/>
      <point x="-35.1463" y="-646.512"/>
      <point x="-35.1463" y="-503.55" type="curve" smooth="yes"/>
      <point x="-35.1463" y="-326.276"/>
      <point x="302.984" y="-189.993"/>
      <point x="436.022" y="-120" type="curve"/>
      <point x="392.454" y="-100.355"/>
      <point x="330.916" y="-62.1132"/>
      <point x="330.916" y="-7.7324" type="curve" smooth="yes"/>
      <point x="330.916" y="83.5838"/>
      <point x="528.109" y="192.133"/>
      <point x="598.958" y="235" type="curve"/>
      <point x="568.213" y="225.876"/>
      <point x="535.971" y="219"/>
      <point x="503.76" y="219" type="curve" smooth="yes"/>
      <point x="350.857" y="219"/>
      <point x="268.075" y="339.691"/>
      <point x="268.075" y="483" type="curve" smooth="yes"/>
      <point x="268.075" y="814.628"/>
      <point x="705.111" y="1078"/>
      <point x="1004.41" y="1078" type="curve" smooth="yes"/>
      <point x="1111.04" y="1078"/>
      <point x="1217.65" y="1072"/>
      <point x="1324.21" y="1072" type="curve" smooth="yes"/>
      <point x="1358.89" y="1072"/>
      <point x="1393.61" y="1081.13"/>
    </contour>
    <contour>
      <point x="740.233" y="927" type="curve" smooth="yes"/>
      <point x="558.467" y="927"/>
      <point x="504.701" y="798.546"/>
      <point x="504.701" y="636.184" type="curve" smooth="yes"/>
      <point x="504.701" y="478.219"/>
      <point x="582.316" y="368"/>
      <point x="749.534" y="368" type="curve" smooth="yes"/>
      <point x="899.877" y="368"/>
      <point x="961.604" y="581.722"/>
      <point x="961.604" y="702.623" type="curve" smooth="yes"/>
      <point x="961.604" y="844.803"/>
      <point x="884.292" y="927"/>
    </contour>
    <contour>
      <point x="479.425" y="-138" type="curve"/>
      <point x="402.091" y="-170.209"/>
      <point x="213.74" y="-257.005"/>
      <point x="213.74" y="-356.208" type="curve" smooth="yes"/>
      <point x="213.74" y="-457.257"/>
      <point x="547.274" y="-519"/>
      <point x="627.294" y="-519" type="curve" smooth="yes"/>
      <point x="711.895" y="-519"/>
      <point x="894.612" y="-506.711"/>
      <point x="894.612" y="-388.674" type="curve" smooth="yes"/>
      <point x="894.612" y="-254.995"/>
      <point x="581.958" y="-172.675"/>
    </contour>
  </outline>
</glyph>
<glyph name="h" format="2">
  <advance width="1360"/>
  <unicode hex="0068"/>
  <anchor x="578" y="0" name="bottom"/>
  <anchor x="928.042" y="876" name="center"/>
  <anchor x="1278.08" y="1752" name="top"/>
  <outline>
    <contour>
      <point x="1309.77" y="149" type="curve"/>
      <point x="1224.07" y="60.9856"/>
      <point x="1105.53" y="-18"/>
      <point x="978.403" y="-18" type="curve" smooth="yes"/>
      <point x="910.514" y="-18"/>
      <point x="877.967" y="13.8893"/>
      <point x="877.967" y="81.1637" type="curve" smooth="yes"/>
      <point x="877.967" y="128.876"/>
      <point x="891.124" y="176.512"/>
      <point x="900.56" y="223" type="curve" smooth="yes"/>
      <point x="928.376" y="360.036"/>
      <point x="957.615" y="496.819"/>
      <point x="984.686" y="634" type="curve" smooth="yes"/>
      <point x="993.067" y="676.472"/>
      <point x="1001.07" y="719.689"/>
      <point x="1001.07" y="763.138" type="curve" smooth="yes"/>
      <point x="1001.07" y="892.882"/>
      <point x="909.777" y="916"/>
      <point x="796.903" y="916" type="curve" smooth="yes"/>
      <point x="607.92" y="916"/>
      <point x="549.182" y="725.343"/>
      <point x="518.497" y="573" type="curve" smooth="yes"/>
      <point x="496.105" y="461.828"/>
      <point x="475.721" y="350.257"/>
      <point x="453.757" y="239" type="curve" smooth="yes"/>
      <point x="450.104" y="220.497"/>
      <point x="446.116" y="201.763"/>
      <point x="446.116" y="182.805" type="curve" smooth="yes"/>
      <point x="446.116" y="149.843"/>
      <point x="460.513" y="131"/>
      <point x="495.176" y="131" type="curve" smooth="yes"/>
      <point x="519.472" y="131"/>
      <point x="544.606" y="139.727"/>
      <point x="566.773" y="149" type="curve"/>
      <point x="515.601" y="63.7541"/>
      <point x="413.909" y="-18"/>
      <point x="310.403" y="-18" type="curve" smooth="yes"/>
      <point x="238.904" y="-18"/>
      <point x="220.378" y="38.3961"/>
      <point x="220.378" y="99.5667" type="curve" smooth="yes"/>
      <point x="220.378" y="135.024"/>
      <point x="226.033" y="170.32"/>
      <point x="232.963" y="205" type="curve" smooth="yes"/>
      <point x="484.536" y="1464" type="line" smooth="yes"/>
      <point x="490.362" y="1493.15"/>
      <point x="495.947" y="1522.74"/>
      <point x="495.947" y="1552.59" type="curve" smooth="yes"/>
      <point x="495.947" y="1600.03"/>
      <point x="480.088" y="1638"/>
      <point x="426.305" y="1638" type="curve" smooth="yes"/>
      <point x="392.346" y="1638"/>
      <point x="358.754" y="1630.76"/>
      <point x="326.108" y="1622" type="curve"/>
      <point x="475.395" y="1721.32"/>
      <point x="632.08" y="1808.79"/>
      <point x="788.058" y="1897" type="curve"/>
      <point x="583.64" y="889" type="line"/>
      <point x="704.179" y="974.583"/>
      <point x="874.239" y="1069"/>
      <point x="1025.52" y="1069" type="curve" smooth="yes"/>
      <point x="1134.9" y="1069"/>
      <point x="1243.1" y="1007.2"/>
      <point x="1243.1" y="886.673" type="curve" smooth="yes"/>
      <point x="1243.1" y="873.023"/>
      <point x="1241.65" y="859.392"/>
      <point x="1239.05" y="846" type="curve" smooth="yes"/>
      <point x="1130.35" y="287" type="line" smooth="yes"/>
      <point x="1124.87" y="258.834"/>
      <point x="1118.75" y="230.158"/>
      <point x="1118.75" y="201.329" type="curve" smooth="yes"/>
      <point x="1118.75" y="141.377"/>
      <point x="1152.67" y="122"/>
      <point x="1209.38" y="122" type="curve" smooth="yes"/>
      <point x="1244.08" y="122"/>
      <point x="1277.71" y="137.422"/>
    </contour>
  </outline>
</glyph>
<glyph name="j" format="2">
  <advance width="678"/>
  <unicode hex="006A"/>
  <outline>
    <contour>
      <point x="861.663" y="1870" type="line"/>
      <point x="850.932" y="1807.96"/>
      <point x="839.184" y="1690.96"/>
      <point x="810.906" y="1631" type="curve" smooth="yes"/>
      <point x="797.455" y="1602.48"/>
      <point x="607.912" y="1498.9"/>
      <point x="568.733" y="1480" type="curve"/>
      <point x="595.818" y="1557.15"/>
      <point x="603.561" y="1638.76"/>
      <point x="616.49" y="1719" type="curve"/>
    </contour>
    <contour>
      <point x="718.4" y="1108" type="curve"/>
      <point x="661.677" y="824.117"/>
      <point x="603.896" y="540.511"/>
      <point x="545.354" y="257" type="curve" smooth="yes"/>
      <point x="528.265" y="174.24"/>
      <point x="511.392" y="91.2091"/>
      <point x="491.798" y="9" type="curve" smooth="yes"/>
      <point x="427.602" y="-260.345"/>
      <point x="142.163" y="-663"/>
      <point x="-163.481" y="-663" type="curve" smooth="yes"/>
      <point x="-188.201" y="-663"/>
      <point x="-224.72" y="-655.955"/>
      <point x="-224.72" y="-623.825" type="curve" smooth="yes"/>
      <point x="-224.72" y="-542.305"/>
      <point x="-8.2814" y="-456.353"/>
      <point x="53.4745" y="-413" type="curve"/>
      <point x="34.9242" y="-425.748"/>
      <point x="15.67" y="-448.004"/>
      <point x="15.67" y="-471.823" type="curve" smooth="yes"/>
      <point x="15.67" y="-501.125"/>
      <point x="44.2334" y="-514.322"/>
      <point x="69.2714" y="-514.322" type="curve"/>
      <point x="76.2927" y="-514" type="line"/>
      <point x="202.469" y="-357.391"/>
      <point x="246.411" y="-167.513"/>
      <point x="284.995" y="25" type="curve" smooth="yes"/>
      <point x="327.839" y="238.763"/>
      <point x="373.054" y="452.08"/>
      <point x="415.08" y="666" type="curve" smooth="yes"/>
      <point x="421.052" y="696.398"/>
      <point x="426.932" y="727.127"/>
      <point x="426.932" y="758.24" type="curve" smooth="yes"/>
      <point x="426.932" y="805.753"/>
      <point x="411.773" y="846"/>
      <point x="357.048" y="846" type="curve" smooth="yes"/>
      <point x="323.392" y="846"/>
      <point x="289.946" y="839.351"/>
      <point x="257.25" y="832" type="curve"/>
      <point x="405.796" y="932.362"/>
      <point x="562.472" y="1019.82"/>
    </contour>
  </outline>
</glyph>
<glyph name="o" format="2">
  <advance width="1193"/>
  <unicode hex="006F"/>
  <anchor x="432" y="0" name="bottom"/>
  <anchor x="636.308" y="512" name="center"/>
  <anchor x="912.998" y="10" name="ogonek"/>
  <anchor x="840.615" y="1024" name="top"/>
  <anchor x="1416.62" y="1024" name="topright"/>
  <outline>
    <contour>
      <point x="440.403" y="-18" type="curve" smooth="yes"/>
      <point x="232.711" y="-18"/>
      <point x="95.9352" y="143.883"/>
      <point x="95.9352" y="345.359" type="curve" smooth="yes"/>
      <point x="95.9352" y="692.883"/>
      <point x="525.938" y="1092"/>
      <point x="868.203" y="1092" type="curve" smooth="yes"/>
      <point x="1075.52" y="1092"/>
      <point x="1205.87" y="931.15"/>
      <point x="1205.87" y="731.443" type="curve" smooth="yes"/>
      <point x="1205.87" y="384.167"/>
      <point x="784.183" y="-18"/>
    </contour>
    <contour>
      <point x="619.43" y="943" type="curve" smooth="yes"/>
      <point x="421.575" y="943"/>
      <point x="345.063" y="674.049"/>
      <point x="345.063" y="514.73" type="curve" smooth="yes"/>
      <point x="345.063" y="305.527"/>
      <point x="455.543" y="129"/>
      <point x="681.777" y="129" type="curve" smooth="yes"/>
      <point x="877.807" y="129"/>
      <point x="957.123" y="402.945"/>
      <point x="957.123" y="560.885" type="curve" smooth="yes"/>
      <point x="957.123" y="770.135"/>
      <point x="844.168" y="943"/>
    </contour>
  </outline>
</glyph>
<glyph name="u" format="2">
  <advance width="1428"/>
  <unicode hex="0075"/>
  <anchor x="626" y="0" name="bottom"/>
  <anchor x="1201" y="10" name="ogonek"/>
  <anchor x="1034.62" y="1024" name="top"/>
  <anchor x="1728.62" y="1024" name="topright"/>
  <outline>
    <contour>
      <point x="1428.17" y="151" type="curve"/>
      <point x="1283.04" y="102.336"/>
      <point x="1271.77" y="-18"/>
      <point x="1078.4" y="-18" type="curve" smooth="yes"/>
      <point x="1013.26" y="-18"/>
      <point x="984.944" y="15.5148"/>
      <point x="984.944" y="78.5334" type="curve" smooth="yes"/>
      <point x="984.944" y="105.918"/>
      <point x="989.571" y="133.236"/>
      <point x="994.971" y="160" type="curve"/>
      <point x="860.299" y="72.9368"/>
      <point x="694.229" y="-23"/>
      <point x="529.404" y="-23" type="curve" smooth="yes"/>
      <point x="386.007" y="-23"/>
      <point x="344.404" y="91.6582"/>
      <point x="344.404" y="215.459" type="curve" smooth="yes"/>
      <point x="344.404" y="263.639"/>
      <point x="350.304" y="311.801"/>
      <point x="359.735" y="359" type="curve" smooth="yes"/>
      <point x="439.064" y="756" type="line" smooth="yes"/>
      <point x="443.682" y="779.111"/>
      <point x="447.184" y="802.662"/>
      <point x="447.184" y="826.281" type="curve" smooth="yes"/>
      <point x="447.184" y="892.991"/>
      <point x="416.418" y="929"/>
      <point x="347.632" y="929" type="curve" smooth="yes"/>
      <point x="319.915" y="929"/>
      <point x="292.109" y="922.825"/>
      <point x="267.036" y="911" type="curve"/>
      <point x="360.738" y="983.663"/>
      <point x="479.571" y="1081"/>
      <point x="604.005" y="1081" type="curve" smooth="yes"/>
      <point x="673.905" y="1081"/>
      <point x="697.6" y="1036.68"/>
      <point x="697.6" y="972.905" type="curve" smooth="yes"/>
      <point x="697.6" y="910.983"/>
      <point x="679.138" y="850.22"/>
      <point x="666.858" y="790" type="curve" smooth="yes"/>
      <point x="643.169" y="673.839"/>
      <point x="616.109" y="558.328"/>
      <point x="593.32" y="442" type="curve" smooth="yes"/>
      <point x="585.757" y="403.394"/>
      <point x="579.957" y="364.225"/>
      <point x="579.957" y="324.799" type="curve" smooth="yes"/>
      <point x="579.957" y="179.288"/>
      <point x="664.672" y="129"/>
      <point x="801.777" y="129" type="curve" smooth="yes"/>
      <point x="877.52" y="129"/>
      <point x="944.93" y="178.264"/>
      <point x="1006.36" y="217" type="curve"/>
      <point x="1122.66" y="799" type="line" smooth="yes"/>
      <point x="1126" y="815.755"/>
      <point x="1128.38" y="832.837"/>
      <point x="1128.38" y="849.955" type="curve" smooth="yes"/>
      <point x="1128.38" y="890.352"/>
      <point x="1114.06" y="923"/>
      <point x="1068.43" y="923" type="curve" smooth="yes"/>
      <point x="1050.36" y="923"/>
      <point x="1032.62" y="917.831"/>
      <point x="1016.04" y="911" type="curve"/>
      <point x="1083.07" y="963.821"/>
      <point x="1222.25" y="1072"/>
      <point x="1308.21" y="1072" type="curve" smooth="yes"/>
      <point x="1353.23" y="1072"/>
      <point x="1371.62" y="1041.62"/>
      <point x="1371.62" y="1000.05" type="curve" smooth="yes"/>
      <point x="1371.62" y="988.621"/>
      <point x="1370.26" y="977.199"/>
      <point x="1368.03" y="966" type="curve" smooth="yes"/>
      <point x="1228.15" y="266" type="line" smooth="yes"/>
      <point x="1225.22" y="251.327"/>
      <point x="1223.16" y="236.362"/>
      <point x="1223.16" y="221.37" type="curve" smooth="yes"/>
      <point x="1223.16" y="152.799"/>
      <point x="1270.02" y="135"/>
      <point x="1330.98" y="135" type="curve" smooth="yes"/>
      <point x="1363.9" y="135"/>
      <point x="1396.59" y="142.291"/>
    </contour>
  </outline>
</glyph>
<glyph name="asciitilde" format="2">
  <advance width="1295"/>
  <unicode hex="007E"/>
  <outline>
    <contour>
      <point x="1380.22" y="977" type="curve"/>
      <point x="1275.63" y="870.292"/>
      <point x="1022.55" y="670"/>
      <point x="869.879" y="670" type="curve" smooth="yes"/>
      <point x="746.673" y="670"/>
      <point x="736.87" y="821.19"/>
      <point x="586.052" y="821" type="curve"/>
      <point x="469.091" y="661.98"/>
      <point x="374.335" y="699.202"/>
      <point x="294.689" y="614" type="curve"/>
      <point x="387.856" y="741.606"/>
      <point x="676.645" y="975"/>
      <point x="838.824" y="975" type="curve" smooth="yes"/>
      <point x="957.018" y="975"/>
      <point x="967.341" y="820.772"/>
      <point x="1130.05" y="821" type="curve"/>
      <point x="1201.63" y="892.641"/>
      <point x="1306.66" y="909.131"/>
    </contour>
  </outline>
</glyph>
<glyph name="exclamdown" format="2">
  <advance width="518"/>
  <unicode hex="00A1"/>
  <outline>
    <contour>
      <point x="727.742" y="1430" type="line"/>
      <point x="483.969" y="1281" type="line"/>
      <point x="405.536" y="1464" type="line"/>
      <point x="649.309" y="1613" type="line"/>
    </contour>
    <contour>
      <point x="394.933" y="149.064" type="curve" smooth="yes"/>
      <point x="394.933" y="131.842"/>
      <point x="399.945" y="111"/>
      <point x="421.18" y="111" type="curve" smooth="yes"/>
      <point x="433.256" y="111"/>
      <point x="486.988" y="153.006"/>
      <point x="501.371" y="162" type="curve"/>
      <point x="501.773" y="149" type="line"/>
      <point x="447.369" y="107.71"/>
      <point x="242.243" y="-34"/>
      <point x="183.206" y="-34" type="curve" smooth="yes"/>
      <point x="156.106" y="-34"/>
      <point x="151.034" y="-4.9654"/>
      <point x="151.034" y="16.3483" type="curve" smooth="yes"/>
      <point x="151.034" y="34.6528"/>
      <point x="154.506" y="52.3528"/>
      <point x="158.987" y="70" type="curve" smooth="yes"/>
      <point x="421.801" y="1105" type="line"/>
      <point x="447.897" y="1140.19"/>
      <point x="560.933" y="1165.21"/>
      <point x="602.582" y="1209" type="curve"/>
      <point x="397.169" y="171" type="line" smooth="yes"/>
      <point x="395.742" y="163.786"/>
      <point x="394.933" y="156.423"/>
    </contour>
  </outline>
</glyph>
<glyph name="currency" format="2">
  <advance width="1295"/>
  <unicode hex="00A4"/>
  <outline>
    <contour>
      <point x="1010.2" y="1087" type="line"/>
      <point x="1041.24" y="1042.21"/>
      <point x="1058.33" y="987.993"/>
      <point x="1058.33" y="933.481" type="curve" smooth="yes"/>
      <point x="1058.33" y="818.273"/>
      <point x="980.436" y="719.634"/>
      <point x="899.884" y="645" type="curve"/>
      <point x="1019.71" y="499" type="line"/>
      <point x="972.854" y="465.945"/>
      <point x="820.466" y="357.533"/>
      <point x="774.337" y="347" type="curve"/>
      <point x="659.913" y="485" type="line"/>
      <point x="590.689" y="452.169"/>
      <point x="515.095" y="422"/>
      <point x="437.324" y="422" type="curve" smooth="yes"/>
      <point x="373.982" y="422"/>
      <point x="308.67" y="438.015"/>
      <point x="257.114" y="476" type="curve"/>
      <point x="202.233" y="438.797"/>
      <point x="109.704" y="371.851"/>
      <point x="49.3365" y="352" type="curve"/>
      <point x="225.909" y="505" type="line"/>
      <point x="186.443" y="546.586"/>
      <point x="174.054" y="615.217"/>
      <point x="174.054" y="670.587" type="curve" smooth="yes"/>
      <point x="174.054" y="779.836"/>
      <point x="225.46" y="880.507"/>
      <point x="308.829" y="950" type="curve"/>
      <point x="305.829" y="950" type="line"/>
      <point x="181.001" y="1101" type="line"/>
      <point x="261.093" y="1151.69"/>
      <point x="336.527" y="1216.59"/>
      <point x="425.174" y="1252" type="curve"/>
      <point x="540.8" y="1110" type="line"/>
      <point x="619.035" y="1150.29"/>
      <point x="707.29" y="1191"/>
      <point x="796.985" y="1191" type="curve" smooth="yes"/>
      <point x="864.41" y="1191"/>
      <point x="931.839" y="1168.05"/>
      <point x="980.998" y="1121" type="curve"/>
      <point x="1046.24" y="1163.85"/>
      <point x="1124.08" y="1219.88"/>
      <point x="1197.78" y="1245" type="curve"/>
    </contour>
    <contour>
      <point x="552.812" y="1045" type="curve" smooth="yes"/>
      <point x="445.356" y="1045"/>
      <point x="415.981" y="899.916"/>
      <point x="415.981" y="816.45" type="curve" smooth="yes"/>
      <point x="415.981" y="657.302"/>
      <point x="518.769" y="564"/>
      <point x="675.698" y="564" type="curve" smooth="yes"/>
      <point x="777.252" y="564"/>
      <point x="812.841" y="708.543"/>
      <point x="812.841" y="788.465" type="curve" smooth="yes"/>
      <point x="812.841" y="941.909"/>
      <point x="705.226" y="1045"/>
    </contour>
  </outline>
</glyph>
<glyph name="ordfeminine" format="2">
  <advance width="987"/>
  <unicode hex="00AA"/>
  <outline>
    <contour>
      <point x="1131.62" y="979" type="curve"/>
      <point x="1024.04" y="942.221"/>
      <point x="954.778" y="821"/>
      <point x="834.052" y="821" type="curve" smooth="yes"/>
      <point x="796.236" y="821"/>
      <point x="774.741" y="842.479"/>
      <point x="774.741" y="880.098" type="curve" smooth="yes"/>
      <point x="774.741" y="894.659"/>
      <point x="777.791" y="909.255"/>
      <point x="782.434" y="923" type="curve"/>
      <point x="693.165" y="873.793"/>
      <point x="590.993" y="826"/>
      <point x="487.051" y="826" type="curve" smooth="yes"/>
      <point x="432.232" y="826"/>
      <point x="349.655" y="846.332"/>
      <point x="349.655" y="914.956" type="curve" smooth="yes"/>
      <point x="349.655" y="1076.4"/>
      <point x="709.71" y="1238.63"/>
      <point x="847.375" y="1248" type="curve"/>
      <point x="851.098" y="1275.55"/>
      <point x="854.231" y="1303.36"/>
      <point x="854.231" y="1331.2" type="curve" smooth="yes"/>
      <point x="854.231" y="1435.92"/>
      <point x="798.951" y="1464"/>
      <point x="700.536" y="1464" type="curve" smooth="yes"/>
      <point x="651.76" y="1464"/>
      <point x="602.973" y="1452.86"/>
      <point x="557.741" y="1435" type="curve"/>
      <point x="666.593" y="1515.64"/>
      <point x="796.761" y="1613"/>
      <point x="938.309" y="1613" type="curve" smooth="yes"/>
      <point x="1028.18" y="1613"/>
      <point x="1102.35" y="1574.36"/>
      <point x="1102.35" y="1475.29" type="curve" smooth="yes"/>
      <point x="1102.35" y="1459.41"/>
      <point x="1100.45" y="1443.56"/>
      <point x="1097.34" y="1428" type="curve" smooth="yes"/>
      <point x="1027.41" y="1078" type="line" smooth="yes"/>
      <point x="1024.36" y="1062.74"/>
      <point x="1022.1" y="1047.18"/>
      <point x="1022.1" y="1031.59" type="curve" smooth="yes"/>
      <point x="1022.1" y="995.748"/>
      <point x="1035.37" y="968"/>
      <point x="1075.43" y="968" type="curve" smooth="yes"/>
      <point x="1094.61" y="968"/>
      <point x="1113.68" y="972.459"/>
    </contour>
    <contour>
      <point x="1038.48" y="668" type="line"/>
      <point x="966.115" y="642.667"/>
      <point x="857.08" y="517"/>
      <point x="791.307" y="517" type="curve" smooth="yes"/>
      <point x="162.307" y="517" type="line"/>
      <point x="198.4" y="545.222"/>
      <point x="371.553" y="668"/>
      <point x="406.48" y="668" type="curve" smooth="yes"/>
    </contour>
    <contour>
      <point x="815.001" y="1101" type="line"/>
      <point x="780.044" y="1112.38"/>
      <point x="743.415" y="1119"/>
      <point x="706.598" y="1119" type="curve" smooth="yes"/>
      <point x="670.531" y="1119"/>
      <point x="634.311" y="1111.66"/>
      <point x="600.602" y="1099" type="curve"/>
      <point x="597.787" y="1085.51"/>
      <point x="595.518" y="1071.89"/>
      <point x="595.518" y="1058.07" type="curve" smooth="yes"/>
      <point x="595.518" y="985.516"/>
      <point x="657.219" y="972"/>
      <point x="717.225" y="972" type="curve" smooth="yes"/>
      <point x="742.851" y="972"/>
      <point x="768.143" y="976.956"/>
      <point x="793.624" y="979" type="curve"/>
    </contour>
  </outline>
</glyph>
<glyph name="logicalnot" format="2">
  <advance width="1295"/>
  <unicode hex="00AC"/>
  <outline>
    <contour>
      <point x="1534.63" y="929" type="line"/>
      <point x="1490.08" y="893.697"/>
      <point x="1448.23" y="854.899"/>
      <point x="1419.85" y="805" type="curve" smooth="yes"/>
      <point x="1366.69" y="711.491"/>
      <point x="1318.88" y="456.062"/>
      <point x="1302.54" y="343" type="curve"/>
      <point x="1049.37" y="192" type="line"/>
      <point x="1091.22" y="402"/>
      <point x="1108.97" y="634.826"/>
      <point x="1287.06" y="781" type="curve"/>
      <point x="136.059" y="781" type="line"/>
      <point x="176.164" y="807.423"/>
      <point x="348.608" y="929"/>
      <point x="382.633" y="929" type="curve" smooth="yes"/>
    </contour>
  </outline>
</glyph>
<glyph name="registered" format="2">
  <advance width="1246"/>
  <unicode hex="00AE"/>
  <outline>
    <contour>
      <point x="531.391" y="47" type="curve" smooth="yes"/>
      <point x="223.582" y="47"/>
      <point x="-32.7944" y="214.13"/>
      <point x="-32.7944" y="544.356" type="curve" smooth="yes"/>
      <point x="-32.7944" y="1071.64"/>
      <point x="580.956" y="1534"/>
      <point x="1078.52" y="1534" type="curve" smooth="yes"/>
      <point x="1374.01" y="1534"/>
      <point x="1628.89" y="1336.9"/>
      <point x="1628.89" y="1027.57" type="curve" smooth="yes"/>
      <point x="1628.89" y="544.653"/>
      <point x="989.323" y="47"/>
    </contour>
    <contour>
      <point x="669.451" y="828" type="line"/>
      <point x="824.451" y="828" type="line" smooth="yes"/>
      <point x="893.957" y="828"/>
      <point x="947.158" y="845.111"/>
      <point x="947.158" y="925.703" type="curve" smooth="yes"/>
      <point x="947.158" y="1038.57"/>
      <point x="797.264" y="1051.04"/>
      <point x="714.01" y="1051" type="curve"/>
    </contour>
    <contour>
      <point x="824.951" y="1381" type="curve" smooth="yes"/>
      <point x="439.001" y="1381"/>
      <point x="207.525" y="1069.52"/>
      <point x="207.525" y="702.814" type="curve" smooth="yes"/>
      <point x="207.525" y="577.968"/>
      <point x="243.823" y="466.349"/>
      <point x="329.733" y="374" type="curve"/>
      <point x="368.509" y="413.919"/>
      <point x="382.527" y="468.058"/>
      <point x="393.106" y="521" type="curve" smooth="yes"/>
      <point x="499.011" y="1051" type="line"/>
      <point x="386.011" y="1051" type="line"/>
      <point x="422.185" y="1079.31"/>
      <point x="595.982" y="1202"/>
      <point x="631.183" y="1202" type="curve" smooth="yes"/>
      <point x="897.183" y="1202" type="line" smooth="yes"/>
      <point x="986.09" y="1202"/>
      <point x="1185.12" y="1187.83"/>
      <point x="1185.12" y="1064.02" type="curve" smooth="yes"/>
      <point x="1185.12" y="947.544"/>
      <point x="1022.03" y="854.284"/>
      <point x="932.855" y="805" type="curve"/>
      <point x="1026.57" y="759.329"/>
      <point x="1137.56" y="512"/>
      <point x="1201.31" y="512" type="curve" smooth="yes"/>
      <point x="1219.09" y="512"/>
      <point x="1237.35" y="519.273"/>
      <point x="1252.5" y="528" type="curve"/>
      <point x="1195.61" y="429.254"/>
      <point x="1075.02" y="365"/>
      <point x="961.934" y="365" type="curve" smooth="yes"/>
      <point x="855.617" y="365"/>
      <point x="819.286" y="665.973"/>
      <point x="641.08" y="666" type="curve"/>
      <point x="629.388" y="607.376"/>
      <point x="603.041" y="562.618"/>
      <point x="569.707" y="514" type="curve"/>
      <point x="594.01" y="510.146"/>
      <point x="618.542" y="508.803"/>
      <point x="643.125" y="508.803" type="curve" smooth="yes"/>
      <point x="675.206" y="508.803"/>
      <point x="707.262" y="510.759"/>
      <point x="739.308" y="512" type="curve"/>
      <point x="639.119" y="482.277"/>
      <point x="585.74" y="360.974"/>
      <point x="450.713" y="360.974" type="curve" smooth="yes"/>
      <point x="414.323" y="360.974"/>
      <point x="377.947" y="362.945"/>
      <point x="341.535" y="363" type="curve"/>
      <point x="454.182" y="247.259"/>
      <point x="617.709" y="194"/>
      <point x="776.765" y="194" type="curve" smooth="yes"/>
      <point x="1136.44" y="194"/>
      <point x="1388.28" y="527.755"/>
      <point x="1388.28" y="869.028" type="curve" smooth="yes"/>
      <point x="1388.28" y="1197.59"/>
      <point x="1136.57" y="1381"/>
    </contour>
  </outline>
</glyph>
<glyph name="plusminus" format="2">
  <advance width="1295"/>
  <unicode hex="00B1"/>
  <outline>
    <contour>
      <point x="1301.28" y="677" type="line"/>
      <point x="1233.93" y="661.556"/>
      <point x="1119.46" y="528"/>
      <point x="1057.5" y="528" type="curve" smooth="yes"/>
      <point x="874.505" y="528" type="line"/>
      <point x="837.814" y="343.642"/>
      <point x="884.543" y="350.829"/>
      <point x="711.353" y="262" type="curve" smooth="yes"/>
      <point x="678.032" y="244.91"/>
      <point x="619.395" y="218.811"/>
      <point x="593.765" y="194" type="curve"/>
      <point x="660.505" y="528" type="line"/>
      <point x="261.505" y="528" type="line"/>
      <point x="330.661" y="544.846"/>
      <point x="435.98" y="677"/>
      <point x="507.278" y="677" type="curve" smooth="yes"/>
      <point x="690.278" y="677" type="line"/>
      <point x="729.104" y="872.002"/>
      <point x="680.23" y="851.643"/>
      <point x="858.83" y="945" type="curve" smooth="yes"/>
      <point x="895.106" y="963.962"/>
      <point x="939.272" y="981.466"/>
      <point x="970.418" y="1008" type="curve"/>
      <point x="904.278" y="677" type="line"/>
    </contour>
    <contour>
      <point x="1195.77" y="149" type="line"/>
      <point x="1128.76" y="133.224"/>
      <point x="1016" y="0"/>
      <point x="952" y="0" type="curve" smooth="yes"/>
      <point x="156" y="0" type="line"/>
      <point x="225.903" y="17.9912"/>
      <point x="332.71" y="149"/>
      <point x="401.773" y="149" type="curve" smooth="yes"/>
    </contour>
  </outline>
</glyph>
<glyph name="mu" format="2">
  <advance width="1378"/>
  <unicode hex="00B5"/>
  <outline>
    <contour>
      <point x="514" y="1000" type="line"/>
      <point x="514" y="-200" type="line"/>
      <point x="464" y="-200" type="line"/>
      <point x="464" y="1000" type="line"/>
      <point x="514" y="1000" type="line"/>
    </contour>
    <contour>
      <point x="464.195" y="111.196" type="line"/>
      <point x="513.805" y="116.804" type="line"/>
      <point x="523.952" y="44.0811"/>
      <point x="565.197" y="22.5"/>
      <point x="634" y="22.5" type="curve"/>
      <point x="729.116" y="22.5"/>
      <point x="775.508" y="84.1139"/>
      <point x="783.53" y="118.609" type="curve"/>
      <point x="832.47" y="109.391" type="line"/>
      <point x="820.492" y="57.8861"/>
      <point x="756.884" y="-22.5"/>
      <point x="634" y="-22.5" type="curve"/>
      <point x="544.803" y="-22.5"/>
      <point x="478.048" y="11.9189"/>
      <point x="464.195" y="111.196" type="curve"/>
    </contour>
    <contour>
      <point x="910.259" y="10.1611" type="line"/>
      <point x="895.713" y="-10.9971"/>
      <point x="873.42" y="-22.5"/>
      <point x="854" y="-22.5" type="curve"/>
      <point x="789.228" y="-22.5"/>
      <point x="783" y="42.0598"/>
      <point x="783" y="114" type="curve"/>
      <point x="783" y="1000" type="line"/>
      <point x="833" y="1000" type="line"/>
      <point x="833" y="114" type="line"/>
      <point x="833" y="99.7397"/>
      <point x="831.45" y="22.5"/>
      <point x="854" y="22.5" type="curve"/>
      <point x="857.694" y="22.5"/>
      <point x="865.222" y="30.1751"/>
      <point x="867.741" y="33.8389" type="curve"/>
      <point x="910.259" y="10.1611" type="line"/>
    </contour>
  </outline>
</glyph>
<glyph name="cedilla" format="2">
  <advance width="1197"/>
  <unicode hex="00B8"/>
  <outline>
    <contour>
      <point x="333.022" y="-120" type="line"/>
      <point x="359.856" y="-103.812"/>
      <point x="397.958" y="-102"/>
      <point x="428.618" y="-102" type="curve" smooth="yes"/>
      <point x="475.687" y="-102"/>
      <point x="545.05" y="-117.122"/>
      <point x="545.05" y="-176.612" type="curve" smooth="yes"/>
      <point x="545.05" y="-314.407"/>
      <point x="191.571" y="-496.905"/>
      <point x="79.4997" y="-553" type="curve"/>
      <point x="157.017" y="-487.912"/>
      <point x="303.817" y="-442.925"/>
      <point x="303.817" y="-320.837" type="curve" smooth="yes"/>
      <point x="303.817" y="-260.182"/>
      <point x="243.049" y="-248"/>
      <point x="194.445" y="-248" type="curve" smooth="yes"/>
      <point x="159.276" y="-248"/>
      <point x="124.576" y="-256.912"/>
      <point x="90.848" y="-266" type="curve"/>
      <point x="240.156" y="-147.978"/>
      <point x="415.834" y="11.763"/>
      <point x="583.383" y="97" type="curve"/>
    </contour>
  </outline>
</glyph>
<glyph name="onesuperior" format="2">
  <advance width="827"/>
  <unicode hex="00B9"/>
  <outline>
    <contour>
      <point x="934.06" y="776" type="line"/>
      <point x="864.769" y="757.211"/>
      <point x="750.247" y="627"/>
      <point x="688.287" y="627" type="curve" smooth="yes"/>
      <point x="347.287" y="627" type="line"/>
      <point x="414.892" y="701.519"/>
      <point x="460.649" y="743.548"/>
      <point x="483.048" y="846" type="curve" smooth="yes"/>
      <point x="528.289" y="1052.94"/>
      <point x="564.349" y="1262.87"/>
      <point x="603.935" y="1471" type="curve"/>
      <point x="537.825" y="1425.13"/>
      <point x="470.801" y="1379.27"/>
      <point x="397.757" y="1345" type="curve"/>
      <point x="420.222" y="1401.79"/>
      <point x="774.897" y="1577.25"/>
      <point x="849.709" y="1615" type="curve"/>
      <point x="717.228" y="952" type="line" smooth="yes"/>
      <point x="704.103" y="886.313"/>
      <point x="660.769" y="803.04"/>
      <point x="596.06" y="776" type="curve"/>
    </contour>
  </outline>
</glyph>
<glyph name="onequarter" format="2">
  <advance width="1752"/>
  <unicode hex="00BC"/>
  <outline>
    <contour>
      <point x="1594.76" y="244" type="curve"/>
      <point x="1575.79" y="206.811"/>
      <point x="1546.68" y="175.487"/>
      <point x="1514.77" y="149" type="curve"/>
      <point x="1747.77" y="149" type="line"/>
      <point x="1710.63" y="123.779"/>
      <point x="1533.23" y="0"/>
      <point x="1503" y="0" type="curve" smooth="yes"/>
      <point x="1257" y="0" type="line"/>
      <point x="1346.65" y="43.3702"/>
      <point x="1362.93" y="132.752"/>
      <point x="1380.16" y="221" type="curve"/>
      <point x="798.56" y="223" type="line"/>
      <point x="847.05" y="242.879"/>
      <point x="946.553" y="323.871"/>
      <point x="992.735" y="359" type="curve" smooth="yes"/>
      <point x="1187.3" y="506.995"/>
      <point x="1339.69" y="664.92"/>
      <point x="1507.05" y="841" type="curve" smooth="yes"/>
      <point x="1563.53" y="900.428"/>
      <point x="1676.3" y="952.663"/>
      <point x="1750.82" y="990" type="curve"/>
      <point x="1625.33" y="372" type="line"/>
      <point x="1650.33" y="372" type="line" smooth="yes"/>
      <point x="1757.36" y="372"/>
      <point x="1813.03" y="379.084"/>
      <point x="1911.12" y="426" type="curve"/>
      <point x="1835.38" y="357.342"/>
      <point x="1692.91" y="272.604"/>
    </contour>
    <contour>
      <point x="1687.27" y="1803" type="curve"/>
      <point x="1542.82" y="1438.4"/>
      <point x="1321.4" y="1111.47"/>
      <point x="1087.66" y="799" type="curve" smooth="yes"/>
      <point x="926.306" y="583.304"/>
      <point x="758.145" y="370.557"/>
      <point x="577.191" y="170.926" type="curve" smooth="yes"/>
      <point x="500.982" y="86.8504"/>
      <point x="418.269" y="-6.8715"/>
      <point x="324.613" y="-72" type="curve" smooth="yes"/>
      <point x="249.065" y="-124.536"/>
      <point x="163.561" y="-159.493"/>
      <point x="89.2385" y="-214" type="curve"/>
      <point x="610.657" y="289.26"/>
      <point x="1130.13" y="945.967"/>
      <point x="1423.91" y="1611" type="curve" smooth="yes"/>
      <point x="1426.66" y="1617.22"/>
      <point x="1440.45" y="1651.02"/>
      <point x="1443.5" y="1654" type="curve" smooth="yes"/>
      <point x="1513.35" y="1722.27"/>
      <point x="1604.82" y="1753.9"/>
    </contour>
    <contour>
      <point x="797.06" y="776" type="line"/>
      <point x="725.622" y="757.674"/>
      <point x="619.126" y="627"/>
      <point x="552.287" y="627" type="curve" smooth="yes"/>
      <point x="212.287" y="627" type="line"/>
      <point x="279.892" y="701.519"/>
      <point x="325.649" y="743.548"/>
      <point x="348.048" y="846" type="curve" smooth="yes"/>
      <point x="393.289" y="1052.94"/>
      <point x="429.349" y="1262.87"/>
      <point x="468.935" y="1471" type="curve"/>
      <point x="401.05" y="1427.71"/>
      <point x="334.467" y="1381.89"/>
      <point x="262.757" y="1345" type="curve"/>
      <point x="263.604" y="1349.23"/>
      <point x="264.082" y="1353.88"/>
      <point x="265.355" y="1358" type="curve" smooth="yes"/>
      <point x="274.446" y="1387.44"/>
      <point x="656.457" y="1586.2"/>
      <point x="713.709" y="1615" type="curve"/>
      <point x="579.228" y="952" type="line" smooth="yes"/>
      <point x="565.536" y="884.496"/>
      <point x="525.5" y="803.24"/>
      <point x="458.06" y="776" type="curve"/>
    </contour>
    <contour>
      <point x="1479.67" y="704" type="line"/>
      <point x="1344.94" y="582.587"/>
      <point x="1200.52" y="472.126"/>
      <point x="1049.33" y="372" type="curve"/>
      <point x="1410.33" y="372" type="line"/>
    </contour>
  </outline>
</glyph>
<glyph name="questiondown" format="2">
  <advance width="1024"/>
  <unicode hex="00BF"/>
  <outline>
    <contour>
      <point x="992.14" y="1442" type="line"/>
      <point x="748.767" y="1290" type="line"/>
      <point x="670.334" y="1473" type="line"/>
      <point x="915.507" y="1624" type="line"/>
    </contour>
    <contour>
      <point x="372.206" y="-34" type="curve" smooth="yes"/>
      <point x="203.277" y="-34"/>
      <point x="87.162" y="86.3839"/>
      <point x="87.162" y="254.159" type="curve" smooth="yes"/>
      <point x="87.162" y="636.149"/>
      <point x="597.974" y="718.596"/>
      <point x="655.216" y="1022" type="curve" smooth="yes"/>
      <point x="659.023" y="1042.18"/>
      <point x="656.106" y="1062.92"/>
      <point x="660.405" y="1083" type="curve" smooth="yes"/>
      <point x="671.394" y="1134.34"/>
      <point x="876.079" y="1191.84"/>
      <point x="904.577" y="1234" type="curve"/>
      <point x="900.89" y="1216.97"/>
      <point x="901.291" y="1201.9"/>
      <point x="901.291" y="1184.6" type="curve" smooth="yes"/>
      <point x="901.291" y="1177.8"/>
      <point x="901.128" y="1170.66"/>
      <point x="899.59" y="1164" type="curve" smooth="yes"/>
      <point x="836.16" y="889.315"/>
      <point x="402.934" y="800.389"/>
      <point x="328.319" y="447" type="curve" smooth="yes"/>
      <point x="323.998" y="426.532"/>
      <point x="321.909" y="405.338"/>
      <point x="321.909" y="384.426" type="curve" smooth="yes"/>
      <point x="321.909" y="211.533"/>
      <point x="473.119" y="117"/>
      <point x="632.379" y="117" type="curve" smooth="yes"/>
      <point x="789.454" y="117"/>
      <point x="885.053" y="294.462"/>
      <point x="885.053" y="434.092" type="curve" smooth="yes"/>
      <point x="885.053" y="465.36"/>
      <point x="880.27" y="496.707"/>
      <point x="869.105" y="526" type="curve"/>
      <point x="1116.28" y="677" type="line"/>
      <point x="1125.46" y="644.513"/>
      <point x="1130.8" y="610.867"/>
      <point x="1130.8" y="577.066" type="curve" smooth="yes"/>
      <point x="1130.8" y="277.589"/>
      <point x="644.332" y="-34"/>
    </contour>
  </outline>
</glyph>
<glyph name="AE" format="2">
  <advance width="2364"/>
  <unicode hex="00C6"/>
  <anchor x="1149" y="0" name="bottom"/>
  <anchor x="1721.54" y="1434" name="top"/>
  <outline>
    <contour>
      <point x="2126.91" y="1586" type="line"/>
      <point x="2056.67" y="1560.35"/>
      <point x="1943.62" y="1435"/>
      <point x="1882.74" y="1435" type="curve" smooth="yes"/>
      <point x="1232.74" y="1435" type="line"/>
      <point x="1283.84" y="900" type="line"/>
      <point x="1809.84" y="900" type="line"/>
      <point x="1775.7" y="886.276"/>
      <point x="1751.31" y="857.62"/>
      <point x="1726.25" y="832" type="curve" smooth="yes"/>
      <point x="1705.17" y="810.446"/>
      <point x="1650.45" y="751"/>
      <point x="1620.06" y="751" type="curve" smooth="yes"/>
      <point x="1299.06" y="751" type="line"/>
      <point x="1316.63" y="601.734"/>
      <point x="1324.79" y="449.521"/>
      <point x="1354.35" y="302" type="curve" smooth="yes"/>
      <point x="1369.51" y="226.304"/>
      <point x="1400.11" y="149"/>
      <point x="1490.77" y="149" type="curve" smooth="yes"/>
      <point x="1891.77" y="149" type="line" smooth="yes"/>
      <point x="1952.21" y="149"/>
      <point x="2045.44" y="185.431"/>
      <point x="2102.56" y="208" type="curve"/>
      <point x="2044.45" y="157.138"/>
      <point x="1780.84" y="0"/>
      <point x="1711" y="0" type="curve" smooth="yes"/>
      <point x="1312" y="0" type="line" smooth="yes"/>
      <point x="1209.92" y="0"/>
      <point x="1149.44" y="21.8308"/>
      <point x="1120.18" y="126" type="curve" smooth="yes"/>
      <point x="1074.44" y="288.81"/>
      <point x="1070.41" y="476.581"/>
      <point x="1054.88" y="645" type="curve"/>
      <point x="942.54" y="578.82"/>
      <point x="702.354" y="581.622"/>
      <point x="571.695" y="584" type="curve"/>
      <point x="462.677" y="425.359"/>
      <point x="334.818" y="279.874"/>
      <point x="193.773" y="149" type="curve"/>
      <point x="224.773" y="149" type="line" smooth="yes"/>
      <point x="346.579" y="149"/>
      <point x="485.208" y="147.803"/>
      <point x="593.962" y="210" type="curve"/>
      <point x="328.567" y="28.0735"/>
      <point x="268.834" y="-0.1766"/>
      <point x="-53" y="0" type="curve"/>
      <point x="-48" y="5" type="line"/>
      <point x="213.604" y="251.287"/>
      <point x="383.316" y="511.122"/>
      <point x="575.855" y="810" type="curve" smooth="yes"/>
      <point x="698.08" y="999.729"/>
      <point x="829.471" y="1183.94"/>
      <point x="939.952" y="1381" type="curve" smooth="yes"/>
      <point x="950.18" y="1399.24"/>
      <point x="959.504" y="1417.97"/>
      <point x="971.742" y="1435" type="curve"/>
      <point x="887.742" y="1435" type="line" smooth="yes"/>
      <point x="775.648" y="1435"/>
      <point x="667.201" y="1428.63"/>
      <point x="560.75" y="1390" type="curve"/>
      <point x="789.805" y="1559.67"/>
      <point x="877.881" y="1586"/>
      <point x="1159.91" y="1586" type="curve" smooth="yes"/>
    </contour>
    <contour>
      <point x="993.778" y="1230" type="line"/>
      <point x="673.468" y="733" type="line"/>
      <point x="683.878" y="738.518"/>
      <point x="702.163" y="738.264"/>
      <point x="713.78" y="738.264" type="curve" smooth="yes"/>
      <point x="777.752" y="738.264"/>
      <point x="841.548" y="733"/>
      <point x="905.468" y="733" type="curve" smooth="yes"/>
      <point x="952.511" y="733"/>
      <point x="999.624" y="733.125"/>
      <point x="1046.47" y="738" type="curve"/>
    </contour>
  </outline>
</glyph>
<glyph name="multiply" format="2">
  <advance width="1295"/>
  <unicode hex="00D7"/>
  <outline>
    <contour>
      <point x="1235.63" y="954" type="curve"/>
      <point x="1127.45" y="841.41"/>
      <point x="1013.27" y="734.516"/>
      <point x="892.085" y="636" type="curve"/>
      <point x="964.206" y="550.795"/>
      <point x="1041.25" y="469.421"/>
      <point x="1126.33" y="397" type="curve"/>
      <point x="1066.86" y="380.398"/>
      <point x="937.757" y="244"/>
      <point x="888.756" y="244" type="curve" smooth="yes"/>
      <point x="867.306" y="244"/>
      <point x="692.08" y="435.058"/>
      <point x="665.916" y="465" type="curve"/>
      <point x="557.873" y="384.085"/>
      <point x="446.094" y="307.419"/>
      <point x="326.756" y="244" type="curve"/>
      <point x="323.353" y="262" type="line"/>
      <point x="441.46" y="321.319"/>
      <point x="546.797" y="403.186"/>
      <point x="648.312" y="487" type="curve"/>
      <point x="566.402" y="586.886"/>
      <point x="495.616" y="695.438"/>
      <point x="432.454" y="808" type="curve"/>
      <point x="495.057" y="861.506"/>
      <point x="605.493" y="917.842"/>
      <point x="679.627" y="959" type="curve"/>
      <point x="723.697" y="855.31"/>
      <point x="782.834" y="755.933"/>
      <point x="861.878" y="675" type="curve"/>
      <point x="907.473" y="720.659"/>
      <point x="951.884" y="768.198"/>
      <point x="999.254" y="812" type="curve" smooth="yes"/>
      <point x="1068.57" y="876.097"/>
      <point x="1167.42" y="890.1"/>
    </contour>
  </outline>
</glyph>
<glyph name="Scaron" format="2">
  <advance width="1189"/>
  <unicode hex="0160"/>
  <outline>
    <contour>
      <point x="1400.32" y="1543" type="curve" smooth="yes"/>
      <point x="1400.32" y="1491.46"/>
      <point x="1151.76" y="1351.81"/>
      <point x="1100.56" y="1329" type="curve"/>
      <point x="1121.35" y="1340.72"/>
      <point x="1151.57" y="1370.32"/>
      <point x="1151.57" y="1396.21" type="curve" smooth="yes"/>
      <point x="1151.57" y="1448.97"/>
      <point x="947.048" y="1464"/>
      <point x="906.536" y="1464" type="curve" smooth="yes"/>
      <point x="728.214" y="1464"/>
      <point x="561.239" y="1402.54"/>
      <point x="561.239" y="1195.62" type="curve" smooth="yes"/>
      <point x="561.239" y="828.002"/>
      <point x="1279.05" y="976.438"/>
      <point x="1279.05" y="599.183" type="curve" smooth="yes"/>
      <point x="1279.05" y="224.422"/>
      <point x="706.465" y="-27"/>
      <point x="387.605" y="-27" type="curve" smooth="yes"/>
      <point x="310.715" y="-27"/>
      <point x="46.899" y="9.7633"/>
      <point x="46.899" y="113.379" type="curve" smooth="yes"/>
      <point x="46.899" y="204.494"/>
      <point x="275.013" y="315.318"/>
      <point x="348.336" y="352" type="curve"/>
      <point x="321.842" y="330.969"/>
      <point x="297.807" y="297.053"/>
      <point x="297.807" y="261.885" type="curve" smooth="yes"/>
      <point x="297.807" y="149.108"/>
      <point x="565.389" y="126"/>
      <point x="646.177" y="126" type="curve" smooth="yes"/>
      <point x="840.528" y="126"/>
      <point x="1041.8" y="211.847"/>
      <point x="1041.8" y="435.438" type="curve" smooth="yes"/>
      <point x="1041.8" y="804.516"/>
      <point x="316.337" y="706.064"/>
      <point x="316.337" y="1037.76" type="curve" smooth="yes"/>
      <point x="316.337" y="1334.52"/>
      <point x="886.887" y="1615"/>
      <point x="1143.71" y="1615" type="curve" smooth="yes"/>
      <point x="1187.64" y="1615"/>
      <point x="1400.32" y="1598.21"/>
    </contour>
    <contour>
      <point x="1536.02" y="2087" type="curve"/>
      <point x="1448.92" y="2013.64"/>
      <point x="1055.72" y="1693.04"/>
      <point x="974.298" y="1678" type="curve"/>
      <point x="897.58" y="1756.32"/>
      <point x="839.975" y="1850.48"/>
      <point x="777.65" y="1940" type="curve"/>
      <point x="820.419" y="1971.16"/>
      <point x="976.313" y="2082.97"/>
      <point x="1017.82" y="2091" type="curve"/>
      <point x="1084" y="2019.31"/>
      <point x="1135.79" y="1936.29"/>
      <point x="1192.07" y="1857" type="curve"/>
      <point x="1300.65" y="1945" type="line" smooth="yes"/>
      <point x="1372.71" y="2002.94"/>
      <point x="1464.53" y="2027.96"/>
    </contour>
  </outline>
</glyph>
<glyph name="Ydieresis" format="2">
  <advance width="1676"/>
  <unicode hex="0178"/>
  <outline>
    <contour>
      <point x="1122.08" y="686" type="curve"/>
      <point x="1091.11" y="502.646"/>
      <point x="1069.37" y="292.552"/>
      <point x="938.773" y="149" type="curve"/>
      <point x="1289.77" y="149" type="line"/>
      <point x="1216.01" y="124.361"/>
      <point x="1108.15" y="0"/>
      <point x="1046" y="0" type="curve" smooth="yes"/>
      <point x="663" y="0" type="line"/>
      <point x="751.755" y="81.7389"/>
      <point x="805.293" y="162.638"/>
      <point x="829.349" y="282" type="curve" smooth="yes"/>
      <point x="885.299" y="562" type="line" smooth="yes"/>
      <point x="888.801" y="579.527"/>
      <point x="889.724" y="597.572"/>
      <point x="889.724" y="615.403" type="curve" smooth="yes"/>
      <point x="889.724" y="697.824"/>
      <point x="871.86" y="782.365"/>
      <point x="851.722" y="861.911" type="curve" smooth="yes"/>
      <point x="816.884" y="999.53"/>
      <point x="664.37" y="1469"/>
      <point x="484.535" y="1469" type="curve" smooth="yes"/>
      <point x="435.718" y="1469"/>
      <point x="378.863" y="1441.25"/>
      <point x="338.745" y="1415" type="curve"/>
      <point x="429.367" y="1504.78"/>
      <point x="588.716" y="1606"/>
      <point x="719.91" y="1606" type="curve" smooth="yes"/>
      <point x="957.469" y="1606"/>
      <point x="1108.75" y="954.069"/>
      <point x="1125.26" y="767" type="curve"/>
      <point x="1241.06" y="884.787"/>
      <point x="1516.62" y="1179.06"/>
      <point x="1516.62" y="1346.53" type="curve" smooth="yes"/>
      <point x="1516.62" y="1417.9"/>
      <point x="1469.96" y="1462"/>
      <point x="1399.14" y="1462" type="curve" smooth="yes"/>
      <point x="1378.77" y="1462"/>
      <point x="1358.58" y="1459.58"/>
      <point x="1338.74" y="1455" type="curve"/>
      <point x="1452.97" y="1490.08"/>
      <point x="1495.27" y="1613"/>
      <point x="1639.31" y="1613" type="curve" smooth="yes"/>
      <point x="1707.37" y="1613"/>
      <point x="1763.09" y="1573.83"/>
      <point x="1763.09" y="1501.56" type="curve" smooth="yes"/>
      <point x="1763.09" y="1300.33"/>
      <point x="1271.88" y="836.196"/>
    </contour>
    <contour>
      <point x="1700.07" y="1807" type="line"/>
      <point x="1457.9" y="1656" type="line"/>
      <point x="1320.47" y="1814" type="line"/>
      <point x="1564.25" y="1963" type="line"/>
    </contour>
    <contour>
      <point x="1197.07" y="1807" type="line"/>
      <point x="954.901" y="1656" type="line"/>
      <point x="817.473" y="1814" type="line"/>
      <point x="1061.25" y="1963" type="line"/>
    </contour>
  </outline>
</glyph>
<glyph name="florin" format="2">
  <advance width="942"/>
  <unicode hex="0192"/>
  <outline>
    <contour>
      <point x="83" y="0" type="line"/>
      <point x="826" y="0" type="line"/>
      <point x="1112" y="1434" type="line"/>
      <point x="370" y="1434" type="line"/>
    </contour>
    <contour>
      <point x="447" y="1337" type="line"/>
      <point x="997" y="1337" type="line"/>
      <point x="750" y="103" type="line"/>
      <point x="200" y="103" type="line"/>
    </contour>
  </outline>
</glyph>
<glyph name="ring" format="2">
  <advance width="1147"/>
  <unicode hex="02DA"/>
  <anchor x="1123.78" y="1200" name="_top"/>
  <outline>
    <contour>
      <point x="990.368" y="1288" type="curve" smooth="yes"/>
      <point x="892.128" y="1288"/>
      <point x="794.58" y="1349.44"/>
      <point x="794.58" y="1456.24" type="curve" smooth="yes"/>
      <point x="794.58" y="1652.21"/>
      <point x="1139.35" y="1888"/>
      <point x="1320.26" y="1888" type="curve" smooth="yes"/>
      <point x="1420.48" y="1888"/>
      <point x="1507.75" y="1810.98"/>
      <point x="1507.75" y="1708.37" type="curve" smooth="yes"/>
      <point x="1507.75" y="1516.73"/>
      <point x="1166.37" y="1288"/>
    </contour>
    <contour>
      <point x="1093.49" y="1739" type="curve" smooth="yes"/>
      <point x="1048.72" y="1739"/>
      <point x="1042.06" y="1655.88"/>
      <point x="1042.06" y="1624.11" type="curve" smooth="yes"/>
      <point x="1042.06" y="1510.48"/>
      <point x="1115.18" y="1434.6"/>
      <point x="1229.34" y="1433" type="curve"/>
      <point x="1250.01" y="1471.7"/>
      <point x="1264.67" y="1511.23"/>
      <point x="1264.67" y="1555.69" type="curve" smooth="yes"/>
      <point x="1264.67" y="1654"/>
      <point x="1195.57" y="1739"/>
    </contour>
  </outline>
</glyph>
<glyph name="tilde" format="2">
  <advance width="1197"/>
  <unicode hex="02DC"/>
  <anchor x="1233.78" y="1200" name="_top"/>
  <outline>
    <contour>
      <point x="1823.9" y="1656" type="curve"/>
      <point x="1695.97" y="1532.83"/>
      <point x="1510.87" y="1392"/>
      <point x="1325.15" y="1392" type="curve" smooth="yes"/>
      <point x="1172.39" y="1392"/>
      <point x="1174.93" y="1527"/>
      <point x="1029.12" y="1527" type="curve" smooth="yes"/>
      <point x="966.97" y="1527"/>
      <point x="807.349" y="1422.05"/>
      <point x="750.75" y="1385" type="curve"/>
      <point x="867.854" y="1525.88"/>
      <point x="1079.26" y="1678"/>
      <point x="1269.3" y="1678" type="curve" smooth="yes"/>
      <point x="1383.22" y="1678"/>
      <point x="1417.43" y="1541"/>
      <point x="1575.92" y="1541" type="curve" smooth="yes"/>
      <point x="1647.73" y="1541"/>
      <point x="1761.13" y="1619.15"/>
    </contour>
  </outline>
</glyph>
<glyph name="emdash" format="2">
  <advance width="2048"/>
  <unicode hex="2014"/>
  <outline>
    <contour>
      <point x="1618.28" y="677" type="line"/>
      <point x="1547.74" y="660.389"/>
      <point x="1440.06" y="528"/>
      <point x="1371.5" y="528" type="curve" smooth="yes"/>
      <point x="703.505" y="528" type="line"/>
      <point x="775.484" y="545.644"/>
      <point x="877.654" y="677"/>
      <point x="950.278" y="677" type="curve" smooth="yes"/>
    </contour>
  </outline>
</glyph>
<glyph name="quotedblleft" format="2">
  <advance width="950"/>
  <unicode hex="201C"/>
  <outline>
    <contour>
      <point x="1110.59" y="1164" type="line"/>
      <point x="865.417" y="1013" type="line"/>
      <point x="831.18" y="1082.55"/>
      <point x="795.755" y="1153.95"/>
      <point x="795.755" y="1233.34" type="curve" smooth="yes"/>
      <point x="795.755" y="1372.87"/>
      <point x="907.232" y="1521.08"/>
      <point x="1027.51" y="1584" type="curve" smooth="yes"/>
      <point x="1049.23" y="1595.36"/>
      <point x="1070.13" y="1606.22"/>
      <point x="1089.11" y="1622" type="curve"/>
      <point x="1021.66" y="1564.07"/>
      <point x="927.894" y="1460.1"/>
      <point x="927.894" y="1366.02" type="curve" smooth="yes"/>
      <point x="927.894" y="1343.08"/>
      <point x="934.424" y="1315"/>
      <point x="962.763" y="1315" type="curve" smooth="yes"/>
      <point x="983.278" y="1315"/>
      <point x="1014.06" y="1336.93"/>
      <point x="1032.16" y="1347" type="curve"/>
    </contour>
    <contour>
      <point x="713.59" y="1164" type="line"/>
      <point x="468.417" y="1013" type="line"/>
      <point x="434.18" y="1082.55"/>
      <point x="398.755" y="1153.95"/>
      <point x="398.755" y="1233.34" type="curve" smooth="yes"/>
      <point x="398.755" y="1372.87"/>
      <point x="510.232" y="1521.08"/>
      <point x="630.514" y="1584" type="curve" smooth="yes"/>
      <point x="652.226" y="1595.36"/>
      <point x="673.129" y="1606.22"/>
      <point x="692.108" y="1622" type="curve"/>
      <point x="624.382" y="1563.83"/>
      <point x="530.867" y="1460.2"/>
      <point x="530.867" y="1365.7" type="curve" smooth="yes"/>
      <point x="530.867" y="1343.41"/>
      <point x="536.94" y="1315"/>
      <point x="564.763" y="1315" type="curve" smooth="yes"/>
      <point x="582.058" y="1315"/>
      <point x="620.362" y="1337.03"/>
      <point x="635.157" y="1347" type="curve"/>
    </contour>
  </outline>
</glyph>
<glyph name="dagger" format="2">
  <advance width="1295"/>
  <unicode hex="2020"/>
  <outline>
    <contour>
      <point x="1376.37" y="1263" type="line"/>
      <point x="1320.91" y="1254.93"/>
      <point x="1191.33" y="1114"/>
      <point x="1130.6" y="1114" type="curve" smooth="yes"/>
      <point x="1006.6" y="1114" type="line"/>
      <point x="743.235" y="-194" type="line" smooth="yes"/>
      <point x="735.935" y="-230.254"/>
      <point x="538.744" y="-303.539"/>
      <point x="498.462" y="-343" type="curve"/>
      <point x="791.599" y="1114" type="line"/>
      <point x="421.599" y="1114" type="line"/>
      <point x="459.966" y="1141.14"/>
      <point x="633.884" y="1263"/>
      <point x="668.372" y="1263" type="curve" smooth="yes"/>
      <point x="824.372" y="1263" type="line"/>
      <point x="916.489" y="1724" type="line"/>
      <point x="955.673" y="1750.89"/>
      <point x="994.544" y="1778.46"/>
      <point x="1035.28" y="1803" type="curve" smooth="yes"/>
      <point x="1073.09" y="1825.78"/>
      <point x="1126.31" y="1842.31"/>
      <point x="1158.06" y="1872" type="curve"/>
      <point x="1036.37" y="1263" type="line"/>
    </contour>
  </outline>
</glyph>
<glyph name="ellipsis" format="2">
  <advance width="2048"/>
  <unicode hex="2026"/>
  <outline>
    <contour>
      <point x="716.379" y="117" type="line"/>
      <point x="469.206" y="-34" type="line"/>
      <point x="393.173" y="151" type="line"/>
      <point x="634.946" y="300" type="line"/>
    </contour>
    <contour>
      <point x="1221.38" y="117" type="line"/>
      <point x="977.206" y="-34" type="line"/>
      <point x="901.173" y="151" type="line"/>
      <point x="1142.95" y="300" type="line"/>
    </contour>
    <contour>
      <point x="1729.38" y="117" type="line"/>
      <point x="1484.21" y="-34" type="line"/>
      <point x="1406.17" y="151" type="line"/>
      <point x="1650.95" y="300" type="line"/>
    </contour>
  </outline>
</glyph>
<glyph name="euro" format="2">
  <advance width="1128"/>
  <unicode hex="20AC"/>
  <outline>
    <contour>
      <point x="288.885" y="351.813" type="curve" smooth="yes"/>
      <point x="288.885" y="197.693"/>
      <point x="354.692" y="-2"/>
      <point x="540.328" y="-2" type="curve" smooth="yes"/>
      <point x="708.733" y="-2"/>
      <point x="931.267" y="171.103"/>
      <point x="1052.95" y="275" type="curve"/>
      <point x="973.089" y="231.249"/>
      <point x="830.15" y="151"/>
      <point x="737.217" y="151" type="curve" smooth="yes"/>
      <point x="563.1" y="151"/>
      <point x="527.583" y="333.595"/>
      <point x="527.583" y="472.334" type="curve" smooth="yes"/>
      <point x="527.583" y="583.433"/>
      <point x="551.612" y="688.58"/>
      <point x="573.101" y="796.841" type="curve" smooth="yes"/>
      <point x="591.838" y="891.236"/>
      <point x="610.26" y="983.085"/>
      <point x="674.518" y="1058.69" type="curve" smooth="yes"/>
      <point x="726.121" y="1119.4"/>
      <point x="787.218" y="1153"/>
      <point x="867.79" y="1153" type="curve" smooth="yes"/>
      <point x="898.508" y="1153"/>
      <point x="1000.93" y="1126.16"/>
      <point x="1000.93" y="1087.76" type="curve" smooth="yes"/>
      <point x="1000.93" y="1069.55"/>
      <point x="958.541" y="1043.41"/>
      <point x="943.864" y="1035" type="curve"/>
      <point x="1002.57" y="1056.36"/>
      <point x="1245.62" y="1170.36"/>
      <point x="1245.62" y="1235.9" type="curve" smooth="yes"/>
      <point x="1245.62" y="1278.51"/>
      <point x="1098.59" y="1304"/>
      <point x="1064.63" y="1304" type="curve" smooth="yes"/>
      <point x="899.365" y="1304"/>
      <point x="734.297" y="1195.43"/>
      <point x="617.892" y="1086.6" type="curve" smooth="yes"/>
      <point x="513.166" y="988.684"/>
      <point x="448.768" y="887.388"/>
      <point x="386.838" y="758.855" type="curve" smooth="yes"/>
      <point x="373.025" y="730.188"/>
      <point x="353.05" y="696.025"/>
      <point x="344.343" y="665.798" type="curve" smooth="yes"/>
      <point x="315.274" y="564.888"/>
      <point x="288.885" y="457.539"/>
    </contour>
    <contour>
      <point x="336.116" y="586" type="line" smooth="yes"/>
      <point x="298.925" y="586.169"/>
      <point x="129.905" y="465.409"/>
      <point x="91.3429" y="437" type="curve"/>
      <point x="342.251" y="437" type="line" smooth="yes"/>
      <point x="416.681" y="437"/>
      <point x="492.931" y="442.76"/>
      <point x="567.376" y="446" type="curve" smooth="yes"/>
      <point x="705.643" y="452.017"/>
      <point x="860.647" y="541.097"/>
      <point x="941.304" y="652" type="curve"/>
      <point x="898.589" y="621.096"/>
      <point x="831.05" y="583.756"/>
      <point x="777.15" y="584" type="curve" smooth="yes"/>
    </contour>
    <contour>
      <point x="145.297" y="692" type="curve"/>
      <point x="399.764" y="692" type="line" smooth="yes"/>
      <point x="458.25" y="692"/>
      <point x="517.557" y="695.059"/>
      <point x="576.043" y="697" type="curve" smooth="yes"/>
      <point x="725.731" y="701.967"/>
      <point x="902.394" y="788.612"/>
      <point x="995.058" y="906" type="curve"/>
      <point x="948.064" y="875.497"/>
      <point x="886.354" y="841"/>
      <point x="828.9" y="841" type="curve" smooth="yes"/>
      <point x="389.07" y="841" type="line" smooth="yes"/>
      <point x="352.353" y="841"/>
      <point x="184.052" y="720.246"/>
    </contour>
  </outline>
</glyph>
<glyph name="Omega" format="2">
  <advance width="1718"/>
  <unicode hex="2126"/>
  <outline>
    <contour>
      <point x="83" y="0" type="line"/>
      <point x="1587" y="0" type="line"/>
      <point x="1873" y="1434" type="line"/>
      <point x="370" y="1434" type="line"/>
    </contour>
    <contour>
      <point x="447" y="1337" type="line"/>
      <point x="1758" y="1337" type="line"/>
      <point x="1511" y="103" type="line"/>
      <point x="200" y="103" type="line"/>
    </contour>
  </outline>
</glyph>
<glyph name="partialdiff" format="2">
  <advance width="1295"/>
  <unicode hex="2202"/>
  <outline>
    <contour>
      <point x="546.005" y="-25" type="curve" smooth="yes"/>
      <point x="340.753" y="-25"/>
      <point x="200.678" y="135.467"/>
      <point x="200.678" y="335.711" type="curve" smooth="yes"/>
      <point x="200.678" y="676.332"/>
      <point x="636.283" y="1063"/>
      <point x="968.408" y="1063" type="curve" smooth="yes"/>
      <point x="1005.58" y="1063"/>
      <point x="1042.74" y="1058.38"/>
      <point x="1078.21" y="1047" type="curve"/>
      <point x="1031.83" y="1297.33"/>
      <point x="904.521" y="1520.01"/>
      <point x="695.499" y="1669" type="curve"/>
      <point x="764.198" y="1693.66"/>
      <point x="883.557" y="1821"/>
      <point x="934.872" y="1821" type="curve" smooth="yes"/>
      <point x="964.985" y="1821"/>
      <point x="1073.47" y="1707.71"/>
      <point x="1096.9" y="1681" type="curve" smooth="yes"/>
      <point x="1263.83" y="1490.66"/>
      <point x="1336.3" y="1226.58"/>
      <point x="1336.3" y="977.187" type="curve" smooth="yes"/>
      <point x="1336.3" y="511.328"/>
      <point x="1075.31" y="-25"/>
    </contour>
    <contour>
      <point x="721.035" y="916" type="curve" smooth="yes"/>
      <point x="528.468" y="916"/>
      <point x="449.399" y="650.753"/>
      <point x="449.399" y="495.469" type="curve" smooth="yes"/>
      <point x="449.399" y="287.225"/>
      <point x="566.684" y="122"/>
      <point x="787.378" y="122" type="curve" smooth="yes"/>
      <point x="980.669" y="122"/>
      <point x="1059.39" y="388.348"/>
      <point x="1059.39" y="544.158" type="curve" smooth="yes"/>
      <point x="1059.39" y="752.62"/>
      <point x="941.305" y="916"/>
    </contour>
  </outline>
</glyph>
<glyph name="Delta" format="2">
  <advance width="1679"/>
  <unicode hex="2206"/>
  <outline>
    <contour>
      <point x="83" y="0" type="line"/>
      <point x="1506" y="0" type="line"/>
      <point x="1792" y="1434" type="line"/>
      <point x="370" y="1434" type="line"/>
    </contour>
    <contour>
      <point x="447" y="1337" type="line"/>
      <point x="1677" y="1337" type="line"/>
      <point x="1430" y="103" type="line"/>
      <point x="200" y="103" type="line"/>
    </contour>
  </outline>
</glyph>
<glyph name="product" format="2">
  <advance width="1838"/>
  <unicode hex="220F"/>
  <outline>
    <contour>
      <point x="2000.91" y="1586" type="line"/>
      <point x="1931.07" y="1569.55"/>
      <point x="1820.46" y="1437"/>
      <point x="1755.14" y="1437" type="curve" smooth="yes"/>
      <point x="1543.14" y="1437" type="line"/>
      <point x="1270.18" y="86" type="line" smooth="yes"/>
      <point x="1262.58" y="48.3521"/>
      <point x="1066.96" y="-29.1634"/>
      <point x="1026.01" y="-65" type="curve"/>
      <point x="1328.14" y="1437" type="line"/>
      <point x="1096.14" y="1437" type="line"/>
      <point x="824.184" y="86" type="line" smooth="yes"/>
      <point x="816.572" y="48.1836"/>
      <point x="619.682" y="-26.2497"/>
      <point x="579.012" y="-65" type="curve"/>
      <point x="882.141" y="1437" type="line"/>
      <point x="512.141" y="1437" type="line"/>
      <point x="550.563" y="1464.06"/>
      <point x="723.598" y="1586"/>
      <point x="757.914" y="1586" type="curve" smooth="yes"/>
    </contour>
  </outline>
</glyph>
<glyph name="summation" format="2">
  <advance width="1332"/>
  <unicode hex="2211"/>
  <outline>
    <contour>
      <point x="83" y="0" type="line"/>
      <point x="1200" y="0" type="line"/>
      <point x="1486" y="1434" type="line"/>
      <point x="370" y="1434" type="line"/>
    </contour>
    <contour>
      <point x="447" y="1337" type="line"/>
      <point x="1371" y="1337" type="line"/>
      <point x="1124" y="103" type="line"/>
      <point x="200" y="103" type="line"/>
    </contour>
  </outline>
</glyph>
<glyph name="fraction" format="2">
  <advance width="74"/>
  <unicode hex="2215"/>
  <outline>
    <contour>
      <point x="-417" y="0" type="line"/>
      <point x="326" y="0" type="line"/>
      <point x="612" y="1434" type="line"/>
      <point x="-130" y="1434" type="line"/>
    </contour>
    <contour>
      <point x="-53" y="1337" type="line"/>
      <point x="497" y="1337" type="line"/>
      <point x="250" y="103" type="line"/>
      <point x="-300" y="103" type="line"/>
    </contour>
  </outline>
</glyph>
<glyph name="periodcentered" format="2">
  <advance width="1295"/>
  <unicode hex="2219"/>
  <outline>
    <contour>
      <point x="83" y="0" type="line"/>
      <point x="1185" y="0" type="line"/>
      <point x="1471" y="1434" type="line"/>
      <point x="370" y="1434" type="line"/>
    </contour>
    <contour>
      <point x="447" y="1337" type="line"/>
      <point x="1356" y="1337" type="line"/>
      <point x="1109" y="103" type="line"/>
      <point x="200" y="103" type="line"/>
    </contour>
  </outline>
</glyph>
<glyph name="radical" format="2">
  <advance width="1456"/>
  <unicode hex="221A"/>
  <outline>
    <contour>
      <point x="83" y="0" type="line"/>
      <point x="1356" y="0" type="line"/>
      <point x="1642" y="1434" type="line"/>
      <point x="370" y="1434" type="line"/>
    </contour>
    <contour>
      <point x="447" y="1337" type="line"/>
      <point x="1527" y="1337" type="line"/>
      <point x="1280" y="103" type="line"/>
      <point x="200" y="103" type="line"/>
    </contour>
  </outline>
</glyph>
<glyph name="lessequal" format="2">
  <advance width="1295"/>
  <unicode hex="2264"/>
  <outline>
    <contour>
      <point x="83" y="0" type="line"/>
      <point x="1143" y="0" type="line"/>
      <point x="1429" y="1434" type="line"/>
      <point x="370" y="1434" type="line"/>
    </contour>
    <contour>
      <point x="447" y="1337" type="line"/>
      <point x="1314" y="1337" type="line"/>
      <point x="1067" y="103" type="line"/>
      <point x="200" y="103" type="line"/>
    </contour>
  </outline>
</glyph>
<glyph name="lozenge" format="2">
  <advance width="1295"/>
  <unicode hex="25CA"/>
  <outline>
    <contour>
      <point x="83" y="0" type="line"/>
      <point x="1159" y="0" type="line"/>
      <point x="1445" y="1434" type="line"/>
      <point x="370" y="1434" type="line"/>
    </contour>
    <contour>
      <point x="447" y="1337" type="line"/>
      <point x="1330" y="1337" type="line"/>
      <point x="1083" y="103" type="line"/>
      <point x="200" y="103" type="line"/>
    </contour>
  </outline>
</glyph>
<glyph name="fi" format="2">
  <advance width="1414"/>
  <unicode hex="F001"/>
  <outline>
    <contour>
      <point x="83" y="0" type="line"/>
      <point x="1270" y="0" type="line"/>
      <point x="1556" y="1434" type="line"/>
      <point x="370" y="1434" type="line"/>
    </contour>
    <contour>
      <point x="447" y="1337" type="line"/>
      <point x="1441" y="1337" type="line"/>
      <point x="1194" y="103" type="line"/>
      <point x="200" y="103" type="line"/>
    </contour>
  </outline>
</glyph>
<glyph name="fl" format="2">
  <advance width="1432"/>
  <unicode hex="F002"/>
  <outline>
    <contour>
      <point x="83" y="0" type="line"/>
      <point x="1286" y="0" type="line"/>
      <point x="1572" y="1434" type="line"/>
      <point x="370" y="1434" type="line"/>
    </contour>
    <contour>
      <point x="447" y="1337" type="line"/>
      <point x="1457" y="1337" type="line"/>
      <point x="1210" y="103" type="line"/>
      <point x="200" y="103" type="line"/>
    </contour>
  </outline>
</glyph>
